<mxfile host="app.diagrams.net" agent="Mozilla/5.0 (Windows NT 10.0; Win64; x64) AppleWebKit/537.36 (KHTML, like Gecko) Chrome/140.0.0.0 Safari/537.36" version="28.2.5">
  <diagram name="Page-1" id="A4ATpebyJCKc3Qa4FKa3">
    <mxGraphModel grid="1" page="1" gridSize="10" guides="1" tooltips="1" connect="1" arrows="1" fold="1" pageScale="1" pageWidth="850" pageHeight="1100" math="0" shadow="0">
      <root>
        <mxCell id="0" />
        <mxCell id="1" parent="0" />
        <mxCell id="HeGCxnUVg1iNXxCKtnh3-126" style="edgeStyle=orthogonalEdgeStyle;rounded=0;orthogonalLoop=1;jettySize=auto;html=1;exitX=0.75;exitY=0;exitDx=0;exitDy=0;entryX=0;entryY=0.5;entryDx=0;entryDy=0;" edge="1" parent="1" source="_SDdMhTvfAspMDNIdv1c-3" target="HeGCxnUVg1iNXxCKtnh3-125">
          <mxGeometry relative="1" as="geometry" />
        </mxCell>
        <mxCell id="_SDdMhTvfAspMDNIdv1c-3" value="Users" style="rounded=1;whiteSpace=wrap;html=1;" vertex="1" parent="1">
          <mxGeometry x="7.5" y="820" width="120" height="60" as="geometry" />
        </mxCell>
        <mxCell id="_SDdMhTvfAspMDNIdv1c-4" value="&lt;u&gt;Id&lt;/u&gt;" style="ellipse;whiteSpace=wrap;html=1;" vertex="1" parent="1">
          <mxGeometry x="7.5" y="980" width="60" height="40" as="geometry" />
        </mxCell>
        <mxCell id="_SDdMhTvfAspMDNIdv1c-5" value="" style="endArrow=none;html=1;rounded=0;entryX=0.63;entryY=1.042;entryDx=0;entryDy=0;entryPerimeter=0;exitX=0.5;exitY=0;exitDx=0;exitDy=0;" edge="1" parent="1" source="_SDdMhTvfAspMDNIdv1c-4" target="_SDdMhTvfAspMDNIdv1c-3">
          <mxGeometry width="50" height="50" relative="1" as="geometry">
            <mxPoint x="-132.5" y="1030" as="sourcePoint" />
            <mxPoint x="-82.5" y="980" as="targetPoint" />
          </mxGeometry>
        </mxCell>
        <mxCell id="_SDdMhTvfAspMDNIdv1c-6" value="Email" style="ellipse;whiteSpace=wrap;html=1;" vertex="1" parent="1">
          <mxGeometry x="-7.5" y="920" width="60" height="40" as="geometry" />
        </mxCell>
        <mxCell id="_SDdMhTvfAspMDNIdv1c-7" value="" style="endArrow=none;html=1;rounded=0;entryX=0.25;entryY=1;entryDx=0;entryDy=0;exitX=0.5;exitY=0;exitDx=0;exitDy=0;" edge="1" parent="1" source="_SDdMhTvfAspMDNIdv1c-6" target="_SDdMhTvfAspMDNIdv1c-3">
          <mxGeometry width="50" height="50" relative="1" as="geometry">
            <mxPoint x="91.5" y="967" as="sourcePoint" />
            <mxPoint x="87.5" y="900" as="targetPoint" />
          </mxGeometry>
        </mxCell>
        <mxCell id="_SDdMhTvfAspMDNIdv1c-8" value="Password" style="ellipse;whiteSpace=wrap;html=1;" vertex="1" parent="1">
          <mxGeometry x="-52.5" y="955" width="60" height="40" as="geometry" />
        </mxCell>
        <mxCell id="fpR-ZrPmKE1Hor2Sd6yp-1" value="" style="endArrow=none;html=1;rounded=0;entryX=0;entryY=0.75;entryDx=0;entryDy=0;exitX=0.5;exitY=0;exitDx=0;exitDy=0;" edge="1" parent="1" source="fpR-ZrPmKE1Hor2Sd6yp-3" target="_SDdMhTvfAspMDNIdv1c-3">
          <mxGeometry width="50" height="50" relative="1" as="geometry">
            <mxPoint x="-102.5" y="910" as="sourcePoint" />
            <mxPoint x="7.5" y="840" as="targetPoint" />
          </mxGeometry>
        </mxCell>
        <mxCell id="_SDdMhTvfAspMDNIdv1c-10" value="BirthDate" style="ellipse;whiteSpace=wrap;html=1;" vertex="1" parent="1">
          <mxGeometry x="67.5" y="945" width="60" height="40" as="geometry" />
        </mxCell>
        <mxCell id="fpR-ZrPmKE1Hor2Sd6yp-3" value="full name" style="ellipse;whiteSpace=wrap;html=1;" vertex="1" parent="1">
          <mxGeometry x="-102.5" y="920" width="60" height="40" as="geometry" />
        </mxCell>
        <mxCell id="_SDdMhTvfAspMDNIdv1c-9" value="" style="endArrow=none;html=1;rounded=0;entryX=0;entryY=1;entryDx=0;entryDy=0;exitX=0.5;exitY=0;exitDx=0;exitDy=0;" edge="1" parent="1" source="_SDdMhTvfAspMDNIdv1c-8" target="_SDdMhTvfAspMDNIdv1c-3">
          <mxGeometry width="50" height="50" relative="1" as="geometry">
            <mxPoint x="37.5" y="960" as="sourcePoint" />
            <mxPoint x="47.5" y="890" as="targetPoint" />
          </mxGeometry>
        </mxCell>
        <mxCell id="fpR-ZrPmKE1Hor2Sd6yp-5" value="first name" style="ellipse;whiteSpace=wrap;html=1;" vertex="1" parent="1">
          <mxGeometry x="-222.5" y="950" width="60" height="40" as="geometry" />
        </mxCell>
        <mxCell id="fpR-ZrPmKE1Hor2Sd6yp-6" value="last name" style="ellipse;whiteSpace=wrap;html=1;" vertex="1" parent="1">
          <mxGeometry x="-102.5" y="990" width="60" height="40" as="geometry" />
        </mxCell>
        <mxCell id="_SDdMhTvfAspMDNIdv1c-11" value="" style="endArrow=none;html=1;rounded=0;entryX=0.75;entryY=1;entryDx=0;entryDy=0;exitX=0;exitY=0.5;exitDx=0;exitDy=0;" edge="1" parent="1" source="_SDdMhTvfAspMDNIdv1c-10" target="_SDdMhTvfAspMDNIdv1c-3">
          <mxGeometry width="50" height="50" relative="1" as="geometry">
            <mxPoint x="121.5" y="957" as="sourcePoint" />
            <mxPoint x="117.5" y="890" as="targetPoint" />
          </mxGeometry>
        </mxCell>
        <mxCell id="fpR-ZrPmKE1Hor2Sd6yp-10" value="" style="endArrow=none;html=1;rounded=0;entryX=0;entryY=0.5;entryDx=0;entryDy=0;exitX=1;exitY=0.5;exitDx=0;exitDy=0;" edge="1" parent="1" source="fpR-ZrPmKE1Hor2Sd6yp-5" target="fpR-ZrPmKE1Hor2Sd6yp-3">
          <mxGeometry width="50" height="50" relative="1" as="geometry">
            <mxPoint x="-162.5" y="980" as="sourcePoint" />
            <mxPoint x="-182.5" y="890" as="targetPoint" />
          </mxGeometry>
        </mxCell>
        <mxCell id="fpR-ZrPmKE1Hor2Sd6yp-11" value="" style="endArrow=none;html=1;rounded=0;entryX=0.5;entryY=0;entryDx=0;entryDy=0;exitX=0.5;exitY=1;exitDx=0;exitDy=0;" edge="1" parent="1" source="fpR-ZrPmKE1Hor2Sd6yp-3" target="fpR-ZrPmKE1Hor2Sd6yp-6">
          <mxGeometry width="50" height="50" relative="1" as="geometry">
            <mxPoint x="-72.5" y="970" as="sourcePoint" />
            <mxPoint x="-72.5" y="1020" as="targetPoint" />
          </mxGeometry>
        </mxCell>
        <mxCell id="_SDdMhTvfAspMDNIdv1c-12" value="IsVerify" style="ellipse;whiteSpace=wrap;html=1;" vertex="1" parent="1">
          <mxGeometry x="107.5" y="905" width="60" height="40" as="geometry" />
        </mxCell>
        <mxCell id="_SDdMhTvfAspMDNIdv1c-14" value="" style="endArrow=none;html=1;rounded=0;entryX=0;entryY=0.5;entryDx=0;entryDy=0;exitX=1;exitY=0.5;exitDx=0;exitDy=0;" edge="1" parent="1" source="CveeT67zE5qwvpXeVrXD-2" target="_SDdMhTvfAspMDNIdv1c-3">
          <mxGeometry width="50" height="50" relative="1" as="geometry">
            <mxPoint x="67.5" y="700" as="sourcePoint" />
            <mxPoint x="157.5" y="830" as="targetPoint" />
          </mxGeometry>
        </mxCell>
        <mxCell id="CveeT67zE5qwvpXeVrXD-2" value="location" style="ellipse;whiteSpace=wrap;html=1;" vertex="1" parent="1">
          <mxGeometry x="-112.5" y="835" width="60" height="40" as="geometry" />
        </mxCell>
        <mxCell id="_SDdMhTvfAspMDNIdv1c-17" value="" style="triangle;whiteSpace=wrap;html=1;rotation=90;" vertex="1" parent="1">
          <mxGeometry x="185" y="540" width="60" height="80" as="geometry" />
        </mxCell>
        <mxCell id="CveeT67zE5qwvpXeVrXD-3" value="city" style="ellipse;whiteSpace=wrap;html=1;" vertex="1" parent="1">
          <mxGeometry x="-212.5" y="815" width="60" height="40" as="geometry" />
        </mxCell>
        <mxCell id="_SDdMhTvfAspMDNIdv1c-20" value="" style="endArrow=none;html=1;rounded=0;entryX=1;entryY=0.5;entryDx=0;entryDy=0;exitX=0.5;exitY=0;exitDx=0;exitDy=0;" edge="1" parent="1" source="_SDdMhTvfAspMDNIdv1c-3" target="_SDdMhTvfAspMDNIdv1c-17">
          <mxGeometry width="50" height="50" relative="1" as="geometry">
            <mxPoint x="225" y="690" as="sourcePoint" />
            <mxPoint x="275" y="640" as="targetPoint" />
          </mxGeometry>
        </mxCell>
        <mxCell id="CveeT67zE5qwvpXeVrXD-4" value="street" style="ellipse;whiteSpace=wrap;html=1;" vertex="1" parent="1">
          <mxGeometry x="-197.5" y="880" width="60" height="40" as="geometry" />
        </mxCell>
        <mxCell id="_SDdMhTvfAspMDNIdv1c-21" value="Doctors" style="rounded=1;whiteSpace=wrap;html=1;" vertex="1" parent="1">
          <mxGeometry x="315" y="400" width="80" height="40" as="geometry" />
        </mxCell>
        <mxCell id="_SDdMhTvfAspMDNIdv1c-22" value="Donners" style="rounded=1;whiteSpace=wrap;html=1;" vertex="1" parent="1">
          <mxGeometry x="-195" y="590" width="80" height="40" as="geometry" />
        </mxCell>
        <mxCell id="CveeT67zE5qwvpXeVrXD-6" value="" style="endArrow=none;html=1;rounded=0;entryX=0.367;entryY=1.1;entryDx=0;entryDy=0;exitX=1;exitY=0.5;exitDx=0;exitDy=0;entryPerimeter=0;" edge="1" parent="1" source="CveeT67zE5qwvpXeVrXD-4" target="CveeT67zE5qwvpXeVrXD-2">
          <mxGeometry width="50" height="50" relative="1" as="geometry">
            <mxPoint x="-222.5" y="900" as="sourcePoint" />
            <mxPoint x="-92.5" y="880" as="targetPoint" />
          </mxGeometry>
        </mxCell>
        <mxCell id="CveeT67zE5qwvpXeVrXD-5" value="" style="endArrow=none;html=1;rounded=0;entryX=0;entryY=0.5;entryDx=0;entryDy=0;exitX=1;exitY=0.5;exitDx=0;exitDy=0;" edge="1" parent="1" source="CveeT67zE5qwvpXeVrXD-3" target="CveeT67zE5qwvpXeVrXD-2">
          <mxGeometry width="50" height="50" relative="1" as="geometry">
            <mxPoint x="-182.5" y="770" as="sourcePoint" />
            <mxPoint x="-52.5" y="750" as="targetPoint" />
          </mxGeometry>
        </mxCell>
        <mxCell id="CveeT67zE5qwvpXeVrXD-8" value="phone number" style="ellipse;whiteSpace=wrap;html=1;" vertex="1" parent="1">
          <mxGeometry x="142.5" y="855" width="60" height="40" as="geometry" />
        </mxCell>
        <mxCell id="_SDdMhTvfAspMDNIdv1c-23" value="Patients" style="rounded=1;whiteSpace=wrap;html=1;" vertex="1" parent="1">
          <mxGeometry x="10" y="445" width="80" height="40" as="geometry" />
        </mxCell>
        <mxCell id="_SDdMhTvfAspMDNIdv1c-24" value="" style="endArrow=none;html=1;rounded=0;exitX=0;exitY=0.75;exitDx=0;exitDy=0;entryX=0.5;entryY=1;entryDx=0;entryDy=0;" edge="1" parent="1" source="_SDdMhTvfAspMDNIdv1c-17" target="_SDdMhTvfAspMDNIdv1c-23">
          <mxGeometry width="50" height="50" relative="1" as="geometry">
            <mxPoint x="165" y="440" as="sourcePoint" />
            <mxPoint x="215" y="390" as="targetPoint" />
          </mxGeometry>
        </mxCell>
        <mxCell id="CveeT67zE5qwvpXeVrXD-10" value="" style="endArrow=none;html=1;rounded=0;entryX=0;entryY=0.5;entryDx=0;entryDy=0;exitX=1;exitY=0.25;exitDx=0;exitDy=0;" edge="1" parent="1" source="_SDdMhTvfAspMDNIdv1c-3" target="CveeT67zE5qwvpXeVrXD-8">
          <mxGeometry width="50" height="50" relative="1" as="geometry">
            <mxPoint x="187.5" y="900" as="sourcePoint" />
            <mxPoint x="187.5" y="750" as="targetPoint" />
          </mxGeometry>
        </mxCell>
        <mxCell id="_SDdMhTvfAspMDNIdv1c-26" value="" style="endArrow=none;html=1;rounded=0;exitX=0;exitY=0.25;exitDx=0;exitDy=0;entryX=0.25;entryY=1;entryDx=0;entryDy=0;" edge="1" parent="1" source="_SDdMhTvfAspMDNIdv1c-17" target="_SDdMhTvfAspMDNIdv1c-21">
          <mxGeometry width="50" height="50" relative="1" as="geometry">
            <mxPoint x="235" y="580" as="sourcePoint" />
            <mxPoint x="235" y="470" as="targetPoint" />
          </mxGeometry>
        </mxCell>
        <mxCell id="_SDdMhTvfAspMDNIdv1c-28" value="Specialization" style="ellipse;whiteSpace=wrap;html=1;" vertex="1" parent="1">
          <mxGeometry x="425" y="320" width="80" height="60" as="geometry" />
        </mxCell>
        <mxCell id="_SDdMhTvfAspMDNIdv1c-29" value="" style="endArrow=none;html=1;rounded=0;entryX=0;entryY=1;entryDx=0;entryDy=0;exitX=1;exitY=0;exitDx=0;exitDy=0;" edge="1" parent="1" source="_SDdMhTvfAspMDNIdv1c-21" target="_SDdMhTvfAspMDNIdv1c-28">
          <mxGeometry width="50" height="50" relative="1" as="geometry">
            <mxPoint x="215" y="520" as="sourcePoint" />
            <mxPoint x="265" y="470" as="targetPoint" />
          </mxGeometry>
        </mxCell>
        <mxCell id="_SDdMhTvfAspMDNIdv1c-30" value="Doctor Appointment Table" style="rounded=1;whiteSpace=wrap;html=1;" vertex="1" parent="1">
          <mxGeometry x="585" y="430" width="100" height="60" as="geometry" />
        </mxCell>
        <mxCell id="_SDdMhTvfAspMDNIdv1c-31" value="Have" style="rhombus;whiteSpace=wrap;html=1;" vertex="1" parent="1">
          <mxGeometry x="475" y="410" width="60" height="60" as="geometry" />
        </mxCell>
        <mxCell id="_SDdMhTvfAspMDNIdv1c-32" value="" style="endArrow=none;html=1;rounded=0;entryX=1;entryY=0.5;entryDx=0;entryDy=0;exitX=0;exitY=0.5;exitDx=0;exitDy=0;" edge="1" parent="1" source="_SDdMhTvfAspMDNIdv1c-31" target="_SDdMhTvfAspMDNIdv1c-21">
          <mxGeometry width="50" height="50" relative="1" as="geometry">
            <mxPoint x="465" y="540" as="sourcePoint" />
            <mxPoint x="515" y="490" as="targetPoint" />
          </mxGeometry>
        </mxCell>
        <mxCell id="_SDdMhTvfAspMDNIdv1c-33" value="" style="endArrow=none;html=1;rounded=0;entryX=1;entryY=0.5;entryDx=0;entryDy=0;exitX=0;exitY=0.5;exitDx=0;exitDy=0;" edge="1" parent="1" source="_SDdMhTvfAspMDNIdv1c-30" target="_SDdMhTvfAspMDNIdv1c-31">
          <mxGeometry width="50" height="50" relative="1" as="geometry">
            <mxPoint x="375" y="580" as="sourcePoint" />
            <mxPoint x="425" y="530" as="targetPoint" />
          </mxGeometry>
        </mxCell>
        <mxCell id="_SDdMhTvfAspMDNIdv1c-34" value="Time Range" style="ellipse;whiteSpace=wrap;html=1;" vertex="1" parent="1">
          <mxGeometry x="555" y="340" width="60" height="40" as="geometry" />
        </mxCell>
        <mxCell id="_SDdMhTvfAspMDNIdv1c-35" value="" style="endArrow=none;html=1;rounded=0;entryX=0.5;entryY=0;entryDx=0;entryDy=0;exitX=0.5;exitY=1;exitDx=0;exitDy=0;" edge="1" parent="1" source="_SDdMhTvfAspMDNIdv1c-34" target="_SDdMhTvfAspMDNIdv1c-30">
          <mxGeometry width="50" height="50" relative="1" as="geometry">
            <mxPoint x="655" y="520" as="sourcePoint" />
            <mxPoint x="705" y="470" as="targetPoint" />
          </mxGeometry>
        </mxCell>
        <mxCell id="HUlT8sGuP16dZYMkzbt1-4" value="&lt;u&gt;id&lt;/u&gt;" style="ellipse;whiteSpace=wrap;html=1;" vertex="1" parent="1">
          <mxGeometry x="-915" y="1070" width="50" height="30" as="geometry" />
        </mxCell>
        <mxCell id="HUlT8sGuP16dZYMkzbt1-6" value="" style="endArrow=none;html=1;rounded=0;exitX=0.5;exitY=0;exitDx=0;exitDy=0;entryX=0.9;entryY=1.05;entryDx=0;entryDy=0;entryPerimeter=0;" edge="1" parent="1" source="HUlT8sGuP16dZYMkzbt1-4" target="HUlT8sGuP16dZYMkzbt1-5">
          <mxGeometry width="50" height="50" relative="1" as="geometry">
            <mxPoint x="-970" y="1105" as="sourcePoint" />
            <mxPoint x="-910" y="995" as="targetPoint" />
          </mxGeometry>
        </mxCell>
        <mxCell id="HUlT8sGuP16dZYMkzbt1-7" value="email" style="ellipse;whiteSpace=wrap;html=1;" vertex="1" parent="1">
          <mxGeometry x="-970" y="995" width="60" height="40" as="geometry" />
        </mxCell>
        <mxCell id="HUlT8sGuP16dZYMkzbt1-8" value="" style="endArrow=none;html=1;rounded=0;entryX=0.5;entryY=1;entryDx=0;entryDy=0;exitX=0.5;exitY=0;exitDx=0;exitDy=0;" edge="1" parent="1" source="HUlT8sGuP16dZYMkzbt1-7" target="HUlT8sGuP16dZYMkzbt1-5">
          <mxGeometry width="50" height="50" relative="1" as="geometry">
            <mxPoint x="-940" y="985" as="sourcePoint" />
            <mxPoint x="-970" y="955" as="targetPoint" />
          </mxGeometry>
        </mxCell>
        <mxCell id="HUlT8sGuP16dZYMkzbt1-10" value="type" style="ellipse;whiteSpace=wrap;html=1;" vertex="1" parent="1">
          <mxGeometry x="-1050" y="995" width="60" height="40" as="geometry" />
        </mxCell>
        <mxCell id="HUlT8sGuP16dZYMkzbt1-11" value="" style="endArrow=none;html=1;rounded=0;entryX=0.25;entryY=1;entryDx=0;entryDy=0;exitX=0.5;exitY=0;exitDx=0;exitDy=0;" edge="1" parent="1" source="HUlT8sGuP16dZYMkzbt1-10" target="HUlT8sGuP16dZYMkzbt1-5">
          <mxGeometry width="50" height="50" relative="1" as="geometry">
            <mxPoint x="-970" y="1015" as="sourcePoint" />
            <mxPoint x="-990" y="955" as="targetPoint" />
          </mxGeometry>
        </mxCell>
        <mxCell id="HUlT8sGuP16dZYMkzbt1-12" value="name" style="ellipse;whiteSpace=wrap;html=1;" vertex="1" parent="1">
          <mxGeometry x="-1110" y="975" width="60" height="40" as="geometry" />
        </mxCell>
        <mxCell id="HUlT8sGuP16dZYMkzbt1-13" value="" style="endArrow=none;html=1;rounded=0;entryX=0;entryY=0.75;entryDx=0;entryDy=0;exitX=0.5;exitY=0;exitDx=0;exitDy=0;" edge="1" parent="1" source="HUlT8sGuP16dZYMkzbt1-12" target="HUlT8sGuP16dZYMkzbt1-5">
          <mxGeometry width="50" height="50" relative="1" as="geometry">
            <mxPoint x="-1070" y="1005" as="sourcePoint" />
            <mxPoint x="-1040" y="945" as="targetPoint" />
          </mxGeometry>
        </mxCell>
        <mxCell id="HUlT8sGuP16dZYMkzbt1-14" value="location" style="ellipse;whiteSpace=wrap;html=1;" vertex="1" parent="1">
          <mxGeometry x="-1135" y="875" width="60" height="40" as="geometry" />
        </mxCell>
        <mxCell id="HUlT8sGuP16dZYMkzbt1-15" value="city" style="ellipse;whiteSpace=wrap;html=1;" vertex="1" parent="1">
          <mxGeometry x="-1230" y="855" width="60" height="40" as="geometry" />
        </mxCell>
        <mxCell id="_SDdMhTvfAspMDNIdv1c-36" value="&lt;u&gt;Id&lt;/u&gt;" style="ellipse;whiteSpace=wrap;html=1;" vertex="1" parent="1">
          <mxGeometry x="625" y="330" width="60" height="40" as="geometry" />
        </mxCell>
        <mxCell id="_SDdMhTvfAspMDNIdv1c-38" value="Doctor ID" style="ellipse;whiteSpace=wrap;html=1;" vertex="1" parent="1">
          <mxGeometry x="555" y="520" width="60" height="40" as="geometry" />
        </mxCell>
        <mxCell id="HUlT8sGuP16dZYMkzbt1-5" value="organization" style="rounded=1;whiteSpace=wrap;html=1;" vertex="1" parent="1">
          <mxGeometry x="-1020" y="875" width="120" height="60" as="geometry" />
        </mxCell>
        <mxCell id="_SDdMhTvfAspMDNIdv1c-39" value="" style="endArrow=none;html=1;rounded=0;entryX=0.5;entryY=0;entryDx=0;entryDy=0;exitX=0.5;exitY=1;exitDx=0;exitDy=0;" edge="1" parent="1" source="_SDdMhTvfAspMDNIdv1c-30" target="_SDdMhTvfAspMDNIdv1c-38">
          <mxGeometry width="50" height="50" relative="1" as="geometry">
            <mxPoint x="749" y="460" as="sourcePoint" />
            <mxPoint x="725" y="486" as="targetPoint" />
          </mxGeometry>
        </mxCell>
        <mxCell id="_SDdMhTvfAspMDNIdv1c-42" value="Reserved To" style="rhombus;whiteSpace=wrap;html=1;" vertex="1" parent="1">
          <mxGeometry x="740" y="315" width="80" height="80" as="geometry" />
        </mxCell>
        <mxCell id="_SDdMhTvfAspMDNIdv1c-46" value="1" style="text;html=1;align=center;verticalAlign=middle;whiteSpace=wrap;rounded=0;" vertex="1" parent="1">
          <mxGeometry x="675" y="420" width="60" height="30" as="geometry" />
        </mxCell>
        <mxCell id="_SDdMhTvfAspMDNIdv1c-47" value="M" style="text;html=1;align=center;verticalAlign=middle;whiteSpace=wrap;rounded=0;" vertex="1" parent="1">
          <mxGeometry x="535" y="122.5" width="60" height="30" as="geometry" />
        </mxCell>
        <mxCell id="_SDdMhTvfAspMDNIdv1c-48" value="" style="endArrow=none;html=1;rounded=0;entryX=0.5;entryY=0;entryDx=0;entryDy=0;exitX=0.75;exitY=1;exitDx=0;exitDy=0;" edge="1" parent="1" source="_SDdMhTvfAspMDNIdv1c-40" target="_SDdMhTvfAspMDNIdv1c-42">
          <mxGeometry width="50" height="50" relative="1" as="geometry">
            <mxPoint x="635" y="390" as="sourcePoint" />
            <mxPoint x="545" y="320" as="targetPoint" />
          </mxGeometry>
        </mxCell>
        <mxCell id="HUlT8sGuP16dZYMkzbt1-16" value="street" style="ellipse;whiteSpace=wrap;html=1;" vertex="1" parent="1">
          <mxGeometry x="-1230" y="915" width="60" height="40" as="geometry" />
        </mxCell>
        <mxCell id="HUlT8sGuP16dZYMkzbt1-17" value="" style="endArrow=none;html=1;rounded=0;entryX=0;entryY=1;entryDx=0;entryDy=0;exitX=1;exitY=0.5;exitDx=0;exitDy=0;" edge="1" parent="1" source="HUlT8sGuP16dZYMkzbt1-16" target="HUlT8sGuP16dZYMkzbt1-14">
          <mxGeometry width="50" height="50" relative="1" as="geometry">
            <mxPoint x="-1170" y="925" as="sourcePoint" />
            <mxPoint x="-1040" y="905" as="targetPoint" />
          </mxGeometry>
        </mxCell>
        <mxCell id="HUlT8sGuP16dZYMkzbt1-18" value="" style="endArrow=none;html=1;rounded=0;entryX=0;entryY=0.5;entryDx=0;entryDy=0;exitX=1;exitY=0.5;exitDx=0;exitDy=0;" edge="1" parent="1" source="HUlT8sGuP16dZYMkzbt1-15" target="HUlT8sGuP16dZYMkzbt1-14">
          <mxGeometry width="50" height="50" relative="1" as="geometry">
            <mxPoint x="-1130" y="795" as="sourcePoint" />
            <mxPoint x="-1000" y="775" as="targetPoint" />
          </mxGeometry>
        </mxCell>
        <mxCell id="HUlT8sGuP16dZYMkzbt1-19" value="" style="endArrow=none;html=1;rounded=0;exitX=1;exitY=0.5;exitDx=0;exitDy=0;" edge="1" parent="1" source="HUlT8sGuP16dZYMkzbt1-14">
          <mxGeometry width="50" height="50" relative="1" as="geometry">
            <mxPoint x="-1050" y="965" as="sourcePoint" />
            <mxPoint x="-1020" y="905" as="targetPoint" />
          </mxGeometry>
        </mxCell>
        <mxCell id="_SDdMhTvfAspMDNIdv1c-37" value="" style="endArrow=none;html=1;rounded=0;entryX=0.75;entryY=0;entryDx=0;entryDy=0;exitX=0;exitY=1;exitDx=0;exitDy=0;" edge="1" parent="1" source="_SDdMhTvfAspMDNIdv1c-36" target="_SDdMhTvfAspMDNIdv1c-30">
          <mxGeometry width="50" height="50" relative="1" as="geometry">
            <mxPoint x="645" y="410" as="sourcePoint" />
            <mxPoint x="645" y="450" as="targetPoint" />
          </mxGeometry>
        </mxCell>
        <mxCell id="_SDdMhTvfAspMDNIdv1c-50" value="&lt;u&gt;Id&lt;/u&gt;" style="ellipse;whiteSpace=wrap;html=1;" vertex="1" parent="1">
          <mxGeometry x="635" y="15" width="60" height="40" as="geometry" />
        </mxCell>
        <mxCell id="_SDdMhTvfAspMDNIdv1c-52" value="StartTime" style="ellipse;whiteSpace=wrap;html=1;" vertex="1" parent="1">
          <mxGeometry x="715" y="35" width="60" height="40" as="geometry" />
        </mxCell>
        <mxCell id="_SDdMhTvfAspMDNIdv1c-43" value="" style="endArrow=none;html=1;rounded=0;entryX=1;entryY=0.5;entryDx=0;entryDy=0;exitX=0;exitY=0.5;exitDx=0;exitDy=0;" edge="1" parent="1" source="_SDdMhTvfAspMDNIdv1c-42" target="_SDdMhTvfAspMDNIdv1c-30">
          <mxGeometry width="50" height="50" relative="1" as="geometry">
            <mxPoint x="689" y="410" as="sourcePoint" />
            <mxPoint x="665" y="436" as="targetPoint" />
          </mxGeometry>
        </mxCell>
        <mxCell id="_SDdMhTvfAspMDNIdv1c-44" value="1" style="text;html=1;align=center;verticalAlign=middle;whiteSpace=wrap;rounded=0;" vertex="1" parent="1">
          <mxGeometry x="385" y="400" width="60" height="30" as="geometry" />
        </mxCell>
        <mxCell id="_SDdMhTvfAspMDNIdv1c-40" value="Reservations" style="rounded=1;whiteSpace=wrap;html=1;" vertex="1" parent="1">
          <mxGeometry x="625" y="95" width="100" height="60" as="geometry" />
        </mxCell>
        <mxCell id="HUlT8sGuP16dZYMkzbt1-21" value="" style="endArrow=none;html=1;rounded=0;exitX=0;exitY=0.5;exitDx=0;exitDy=0;entryX=1;entryY=0.5;entryDx=0;entryDy=0;" edge="1" parent="1" source="HUlT8sGuP16dZYMkzbt1-20" target="HUlT8sGuP16dZYMkzbt1-5">
          <mxGeometry width="50" height="50" relative="1" as="geometry">
            <mxPoint x="-823" y="952" as="sourcePoint" />
            <mxPoint x="-880" y="905" as="targetPoint" />
          </mxGeometry>
        </mxCell>
        <mxCell id="HUlT8sGuP16dZYMkzbt1-20" value="VerifyCode" style="ellipse;whiteSpace=wrap;html=1;" vertex="1" parent="1">
          <mxGeometry x="-782.5" y="900" width="75" height="50" as="geometry" />
        </mxCell>
        <mxCell id="HUlT8sGuP16dZYMkzbt1-22" value="phone number" style="ellipse;whiteSpace=wrap;html=1;" vertex="1" parent="1">
          <mxGeometry x="-1150" y="805" width="60" height="40" as="geometry" />
        </mxCell>
        <mxCell id="_SDdMhTvfAspMDNIdv1c-45" value="1" style="text;html=1;align=center;verticalAlign=middle;whiteSpace=wrap;rounded=0;" vertex="1" parent="1">
          <mxGeometry x="545" y="410" width="60" height="30" as="geometry" />
        </mxCell>
        <mxCell id="HUlT8sGuP16dZYMkzbt1-23" value="" style="endArrow=none;html=1;rounded=0;exitX=1;exitY=0.5;exitDx=0;exitDy=0;entryX=0;entryY=0;entryDx=0;entryDy=0;" edge="1" parent="1" source="HUlT8sGuP16dZYMkzbt1-22" target="HUlT8sGuP16dZYMkzbt1-5">
          <mxGeometry width="50" height="50" relative="1" as="geometry">
            <mxPoint x="-1030" y="835" as="sourcePoint" />
            <mxPoint x="-980" y="845" as="targetPoint" />
          </mxGeometry>
        </mxCell>
        <mxCell id="_SDdMhTvfAspMDNIdv1c-53" value="" style="endArrow=none;html=1;rounded=0;entryX=0.5;entryY=1;entryDx=0;entryDy=0;exitX=0.25;exitY=0;exitDx=0;exitDy=0;" edge="1" parent="1" source="_SDdMhTvfAspMDNIdv1c-40" target="_SDdMhTvfAspMDNIdv1c-50">
          <mxGeometry width="50" height="50" relative="1" as="geometry">
            <mxPoint x="475" y="225" as="sourcePoint" />
            <mxPoint x="525" y="175" as="targetPoint" />
          </mxGeometry>
        </mxCell>
        <mxCell id="_SDdMhTvfAspMDNIdv1c-54" value="" style="endArrow=none;html=1;rounded=0;entryX=0;entryY=1;entryDx=0;entryDy=0;exitX=0.75;exitY=0;exitDx=0;exitDy=0;" edge="1" parent="1" source="_SDdMhTvfAspMDNIdv1c-40" target="_SDdMhTvfAspMDNIdv1c-52">
          <mxGeometry width="50" height="50" relative="1" as="geometry">
            <mxPoint x="745" y="115" as="sourcePoint" />
            <mxPoint x="760" y="75" as="targetPoint" />
          </mxGeometry>
        </mxCell>
        <mxCell id="_SDdMhTvfAspMDNIdv1c-55" value="EndTime" style="ellipse;whiteSpace=wrap;html=1;" vertex="1" parent="1">
          <mxGeometry x="785" y="105" width="60" height="40" as="geometry" />
        </mxCell>
        <mxCell id="_SDdMhTvfAspMDNIdv1c-56" value="Status" style="ellipse;whiteSpace=wrap;html=1;" vertex="1" parent="1">
          <mxGeometry x="575" y="20" width="60" height="40" as="geometry" />
        </mxCell>
        <mxCell id="_SDdMhTvfAspMDNIdv1c-57" value="" style="endArrow=none;html=1;rounded=0;entryX=0;entryY=0.5;entryDx=0;entryDy=0;exitX=1;exitY=0.5;exitDx=0;exitDy=0;" edge="1" parent="1" source="_SDdMhTvfAspMDNIdv1c-40" target="_SDdMhTvfAspMDNIdv1c-55">
          <mxGeometry width="50" height="50" relative="1" as="geometry">
            <mxPoint x="795" y="161" as="sourcePoint" />
            <mxPoint x="819" y="135" as="targetPoint" />
          </mxGeometry>
        </mxCell>
        <mxCell id="_SDdMhTvfAspMDNIdv1c-58" value="" style="endArrow=none;html=1;rounded=0;entryX=0.5;entryY=1;entryDx=0;entryDy=0;exitX=0;exitY=0.25;exitDx=0;exitDy=0;" edge="1" parent="1" source="_SDdMhTvfAspMDNIdv1c-40" target="_SDdMhTvfAspMDNIdv1c-56">
          <mxGeometry width="50" height="50" relative="1" as="geometry">
            <mxPoint x="805" y="165" as="sourcePoint" />
            <mxPoint x="865" y="165" as="targetPoint" />
          </mxGeometry>
        </mxCell>
        <mxCell id="_SDdMhTvfAspMDNIdv1c-59" value="Pref" style="ellipse;whiteSpace=wrap;html=1;" vertex="1" parent="1">
          <mxGeometry x="505" y="30" width="60" height="40" as="geometry" />
        </mxCell>
        <mxCell id="_SDdMhTvfAspMDNIdv1c-61" value="PatientId" style="ellipse;whiteSpace=wrap;html=1;" vertex="1" parent="1">
          <mxGeometry x="455" y="65" width="60" height="40" as="geometry" />
        </mxCell>
        <mxCell id="_SDdMhTvfAspMDNIdv1c-62" value="" style="endArrow=none;html=1;rounded=0;entryX=1;entryY=1;entryDx=0;entryDy=0;exitX=0;exitY=0.5;exitDx=0;exitDy=0;" edge="1" parent="1" source="_SDdMhTvfAspMDNIdv1c-40" target="_SDdMhTvfAspMDNIdv1c-61">
          <mxGeometry width="50" height="50" relative="1" as="geometry">
            <mxPoint x="700" y="155" as="sourcePoint" />
            <mxPoint x="695" y="305" as="targetPoint" />
          </mxGeometry>
        </mxCell>
        <mxCell id="_SDdMhTvfAspMDNIdv1c-63" value="" style="endArrow=none;html=1;rounded=0;exitX=1;exitY=0.5;exitDx=0;exitDy=0;entryX=0;entryY=0.5;entryDx=0;entryDy=0;" edge="1" parent="1" source="_SDdMhTvfAspMDNIdv1c-23" target="_SDdMhTvfAspMDNIdv1c-64">
          <mxGeometry width="50" height="50" relative="1" as="geometry">
            <mxPoint x="335" y="580" as="sourcePoint" />
            <mxPoint x="425" y="70" as="targetPoint" />
          </mxGeometry>
        </mxCell>
        <mxCell id="_SDdMhTvfAspMDNIdv1c-64" value="Can Reserve" style="rhombus;whiteSpace=wrap;html=1;" vertex="1" parent="1">
          <mxGeometry x="275" y="202.5" width="80" height="80" as="geometry" />
        </mxCell>
        <mxCell id="_SDdMhTvfAspMDNIdv1c-65" value="" style="endArrow=none;html=1;rounded=0;exitX=1;exitY=0.5;exitDx=0;exitDy=0;entryX=0;entryY=0.5;entryDx=0;entryDy=0;" edge="1" parent="1" source="_SDdMhTvfAspMDNIdv1c-64" target="_SDdMhTvfAspMDNIdv1c-40">
          <mxGeometry width="50" height="50" relative="1" as="geometry">
            <mxPoint x="405" y="485" as="sourcePoint" />
            <mxPoint x="785" y="130" as="targetPoint" />
          </mxGeometry>
        </mxCell>
        <mxCell id="_SDdMhTvfAspMDNIdv1c-66" value="1" style="text;html=1;align=center;verticalAlign=middle;whiteSpace=wrap;rounded=0;" vertex="1" parent="1">
          <mxGeometry x="55" y="350" width="60" height="30" as="geometry" />
        </mxCell>
        <mxCell id="_SDdMhTvfAspMDNIdv1c-67" value="M" style="text;html=1;align=center;verticalAlign=middle;whiteSpace=wrap;rounded=0;" vertex="1" parent="1">
          <mxGeometry x="710" y="157.5" width="60" height="30" as="geometry" />
        </mxCell>
        <mxCell id="_SDdMhTvfAspMDNIdv1c-68" value="Files" style="rounded=1;whiteSpace=wrap;html=1;" vertex="1" parent="1">
          <mxGeometry x="-295" y="400" width="100" height="40" as="geometry" />
        </mxCell>
        <mxCell id="HeGCxnUVg1iNXxCKtnh3-1" value="certificate" style="ellipse;whiteSpace=wrap;html=1;" vertex="1" parent="1">
          <mxGeometry x="385" y="490" width="60" height="40" as="geometry" />
        </mxCell>
        <mxCell id="_SDdMhTvfAspMDNIdv1c-69" value="" style="endArrow=none;html=1;rounded=0;exitX=1;exitY=0.5;exitDx=0;exitDy=0;entryX=0;entryY=0.5;entryDx=0;entryDy=0;" edge="1" parent="1" source="_SDdMhTvfAspMDNIdv1c-68" target="_SDdMhTvfAspMDNIdv1c-70">
          <mxGeometry width="50" height="50" relative="1" as="geometry">
            <mxPoint x="-55" y="420" as="sourcePoint" />
            <mxPoint x="-125" y="420" as="targetPoint" />
          </mxGeometry>
        </mxCell>
        <mxCell id="HeGCxnUVg1iNXxCKtnh3-2" value="" style="endArrow=none;html=1;rounded=0;entryX=0;entryY=0;entryDx=0;entryDy=0;exitX=0.625;exitY=1;exitDx=0;exitDy=0;exitPerimeter=0;" edge="1" parent="1" source="_SDdMhTvfAspMDNIdv1c-21" target="HeGCxnUVg1iNXxCKtnh3-1">
          <mxGeometry width="50" height="50" relative="1" as="geometry">
            <mxPoint x="405" y="535" as="sourcePoint" />
            <mxPoint x="535" y="530" as="targetPoint" />
          </mxGeometry>
        </mxCell>
        <mxCell id="_SDdMhTvfAspMDNIdv1c-70" value="Upload" style="rhombus;whiteSpace=wrap;html=1;" vertex="1" parent="1">
          <mxGeometry x="-135" y="407.5" width="60" height="60" as="geometry" />
        </mxCell>
        <mxCell id="_SDdMhTvfAspMDNIdv1c-71" value="" style="endArrow=none;html=1;rounded=0;exitX=0;exitY=0.5;exitDx=0;exitDy=0;entryX=1;entryY=1;entryDx=0;entryDy=0;" edge="1" parent="1" source="_SDdMhTvfAspMDNIdv1c-23" target="_SDdMhTvfAspMDNIdv1c-70">
          <mxGeometry width="50" height="50" relative="1" as="geometry">
            <mxPoint x="-60" y="470" as="sourcePoint" />
            <mxPoint x="-60" y="470" as="targetPoint" />
          </mxGeometry>
        </mxCell>
        <mxCell id="_SDdMhTvfAspMDNIdv1c-72" value="1" style="text;html=1;align=center;verticalAlign=middle;whiteSpace=wrap;rounded=0;" vertex="1" parent="1">
          <mxGeometry x="-40" y="420" width="60" height="30" as="geometry" />
        </mxCell>
        <mxCell id="_SDdMhTvfAspMDNIdv1c-73" value="M" style="text;html=1;align=center;verticalAlign=middle;whiteSpace=wrap;rounded=0;" vertex="1" parent="1">
          <mxGeometry x="-195" y="360" width="60" height="30" as="geometry" />
        </mxCell>
        <mxCell id="_SDdMhTvfAspMDNIdv1c-74" value="PatientId" style="ellipse;whiteSpace=wrap;html=1;" vertex="1" parent="1">
          <mxGeometry x="-385" y="340" width="60" height="40" as="geometry" />
        </mxCell>
        <mxCell id="HeGCxnUVg1iNXxCKtnh3-3" value="medical need" style="rounded=1;whiteSpace=wrap;html=1;" vertex="1" parent="1">
          <mxGeometry x="-890" y="560" width="120" height="60" as="geometry" />
        </mxCell>
        <mxCell id="_SDdMhTvfAspMDNIdv1c-75" value="" style="endArrow=none;html=1;rounded=0;exitX=1;exitY=1;exitDx=0;exitDy=0;entryX=0;entryY=0.25;entryDx=0;entryDy=0;" edge="1" parent="1" source="_SDdMhTvfAspMDNIdv1c-74" target="_SDdMhTvfAspMDNIdv1c-68">
          <mxGeometry width="50" height="50" relative="1" as="geometry">
            <mxPoint x="-145" y="430" as="sourcePoint" />
            <mxPoint x="-65" y="430" as="targetPoint" />
          </mxGeometry>
        </mxCell>
        <mxCell id="_SDdMhTvfAspMDNIdv1c-76" value="&lt;u&gt;Id&lt;/u&gt;" style="ellipse;whiteSpace=wrap;html=1;" vertex="1" parent="1">
          <mxGeometry x="-335" y="305" width="60" height="40" as="geometry" />
        </mxCell>
        <mxCell id="_SDdMhTvfAspMDNIdv1c-77" value="" style="endArrow=none;html=1;rounded=0;exitX=0.5;exitY=1;exitDx=0;exitDy=0;entryX=0.25;entryY=0;entryDx=0;entryDy=0;" edge="1" parent="1" source="_SDdMhTvfAspMDNIdv1c-76" target="_SDdMhTvfAspMDNIdv1c-68">
          <mxGeometry width="50" height="50" relative="1" as="geometry">
            <mxPoint x="-325" y="380" as="sourcePoint" />
            <mxPoint x="-286" y="411" as="targetPoint" />
          </mxGeometry>
        </mxCell>
        <mxCell id="_SDdMhTvfAspMDNIdv1c-78" value="Link" style="ellipse;whiteSpace=wrap;html=1;" vertex="1" parent="1">
          <mxGeometry x="-405" y="400" width="60" height="40" as="geometry" />
        </mxCell>
        <mxCell id="_SDdMhTvfAspMDNIdv1c-79" value="" style="endArrow=none;html=1;rounded=0;exitX=1;exitY=0.5;exitDx=0;exitDy=0;entryX=0;entryY=0.5;entryDx=0;entryDy=0;" edge="1" parent="1" source="_SDdMhTvfAspMDNIdv1c-78" target="_SDdMhTvfAspMDNIdv1c-68">
          <mxGeometry width="50" height="50" relative="1" as="geometry">
            <mxPoint x="-315" y="390" as="sourcePoint" />
            <mxPoint x="-305" y="450" as="targetPoint" />
          </mxGeometry>
        </mxCell>
        <mxCell id="_SDdMhTvfAspMDNIdv1c-81" value="Status" style="ellipse;whiteSpace=wrap;html=1;" vertex="1" parent="1">
          <mxGeometry x="-385" y="460" width="60" height="40" as="geometry" />
        </mxCell>
        <mxCell id="_SDdMhTvfAspMDNIdv1c-82" value="" style="endArrow=none;html=1;rounded=0;exitX=1;exitY=0;exitDx=0;exitDy=0;entryX=0;entryY=1;entryDx=0;entryDy=0;" edge="1" parent="1" source="_SDdMhTvfAspMDNIdv1c-81" target="_SDdMhTvfAspMDNIdv1c-68">
          <mxGeometry width="50" height="50" relative="1" as="geometry">
            <mxPoint x="-135" y="470" as="sourcePoint" />
            <mxPoint x="-85" y="420" as="targetPoint" />
          </mxGeometry>
        </mxCell>
        <mxCell id="_SDdMhTvfAspMDNIdv1c-83" value="Password" style="ellipse;whiteSpace=wrap;html=1;" vertex="1" parent="1">
          <mxGeometry x="-1010" y="1035" width="60" height="40" as="geometry" />
        </mxCell>
        <mxCell id="_SDdMhTvfAspMDNIdv1c-84" value="" style="endArrow=none;html=1;rounded=0;entryX=0.357;entryY=1.051;entryDx=0;entryDy=0;entryPerimeter=0;exitX=0.5;exitY=0;exitDx=0;exitDy=0;" edge="1" parent="1" source="_SDdMhTvfAspMDNIdv1c-83" target="HUlT8sGuP16dZYMkzbt1-5">
          <mxGeometry width="50" height="50" relative="1" as="geometry">
            <mxPoint x="-980" y="1045" as="sourcePoint" />
            <mxPoint x="-950" y="985" as="targetPoint" />
          </mxGeometry>
        </mxCell>
        <mxCell id="_SDdMhTvfAspMDNIdv1c-85" value="IsActive" style="ellipse;whiteSpace=wrap;html=1;" vertex="1" parent="1">
          <mxGeometry x="-880" y="1020" width="60" height="40" as="geometry" />
        </mxCell>
        <mxCell id="_SDdMhTvfAspMDNIdv1c-86" value="" style="endArrow=none;html=1;rounded=0;exitX=0;exitY=0;exitDx=0;exitDy=0;entryX=1;entryY=0.75;entryDx=0;entryDy=0;" edge="1" parent="1" source="_SDdMhTvfAspMDNIdv1c-85" target="HUlT8sGuP16dZYMkzbt1-5">
          <mxGeometry width="50" height="50" relative="1" as="geometry">
            <mxPoint x="-823" y="1022" as="sourcePoint" />
            <mxPoint x="-880" y="965" as="targetPoint" />
          </mxGeometry>
        </mxCell>
        <mxCell id="HeGCxnUVg1iNXxCKtnh3-6" value="name" style="ellipse;whiteSpace=wrap;html=1;" vertex="1" parent="1">
          <mxGeometry x="-1045" y="555" width="60" height="40" as="geometry" />
        </mxCell>
        <mxCell id="HeGCxnUVg1iNXxCKtnh3-7" value="description" style="ellipse;whiteSpace=wrap;html=1;" vertex="1" parent="1">
          <mxGeometry x="-1037.5" y="605" width="60" height="40" as="geometry" />
        </mxCell>
        <mxCell id="HeGCxnUVg1iNXxCKtnh3-10" value="quantity&amp;nbsp;" style="ellipse;whiteSpace=wrap;html=1;" vertex="1" parent="1">
          <mxGeometry x="-775" y="710" width="60" height="40" as="geometry" />
        </mxCell>
        <mxCell id="HeGCxnUVg1iNXxCKtnh3-12" value="type" style="ellipse;whiteSpace=wrap;html=1;" vertex="1" parent="1">
          <mxGeometry x="-712.5" y="695" width="60" height="40" as="geometry" />
        </mxCell>
        <mxCell id="HeGCxnUVg1iNXxCKtnh3-15" value="is request" style="ellipse;whiteSpace=wrap;html=1;" vertex="1" parent="1">
          <mxGeometry x="-950" y="480" width="60" height="40" as="geometry" />
        </mxCell>
        <mxCell id="_SDdMhTvfAspMDNIdv1c-96" value="" style="endArrow=none;html=1;rounded=0;entryX=0.5;entryY=1;entryDx=0;entryDy=0;exitX=1;exitY=0.5;exitDx=0;exitDy=0;" edge="1" parent="1" source="_SDdMhTvfAspMDNIdv1c-22" target="_SDdMhTvfAspMDNIdv1c-17">
          <mxGeometry width="50" height="50" relative="1" as="geometry">
            <mxPoint x="-155" y="640" as="sourcePoint" />
            <mxPoint x="-105" y="590" as="targetPoint" />
          </mxGeometry>
        </mxCell>
        <mxCell id="HeGCxnUVg1iNXxCKtnh3-20" value="status" style="ellipse;whiteSpace=wrap;html=1;" vertex="1" parent="1">
          <mxGeometry x="-712.5" y="635" width="60" height="40" as="geometry" />
        </mxCell>
        <mxCell id="_SDdMhTvfAspMDNIdv1c-97" value="&lt;u&gt;Id&lt;/u&gt;" style="ellipse;whiteSpace=wrap;html=1;" vertex="1" parent="1">
          <mxGeometry x="-985" y="530" width="60" height="40" as="geometry" />
        </mxCell>
        <mxCell id="HeGCxnUVg1iNXxCKtnh3-22" value="" style="endArrow=none;html=1;rounded=0;entryX=0;entryY=0.5;entryDx=0;entryDy=0;exitX=1;exitY=0.5;exitDx=0;exitDy=0;" edge="1" parent="1" source="_SDdMhTvfAspMDNIdv1c-97" target="HeGCxnUVg1iNXxCKtnh3-3">
          <mxGeometry width="50" height="50" relative="1" as="geometry">
            <mxPoint x="-790" y="500" as="sourcePoint" />
            <mxPoint x="-480" y="470" as="targetPoint" />
          </mxGeometry>
        </mxCell>
        <mxCell id="HeGCxnUVg1iNXxCKtnh3-23" value="" style="endArrow=none;html=1;rounded=0;entryX=0;entryY=0.75;entryDx=0;entryDy=0;exitX=1;exitY=0.5;exitDx=0;exitDy=0;" edge="1" parent="1" source="HeGCxnUVg1iNXxCKtnh3-6" target="HeGCxnUVg1iNXxCKtnh3-3">
          <mxGeometry width="50" height="50" relative="1" as="geometry">
            <mxPoint x="-920" y="660" as="sourcePoint" />
            <mxPoint x="-865" y="660" as="targetPoint" />
          </mxGeometry>
        </mxCell>
        <mxCell id="HeGCxnUVg1iNXxCKtnh3-24" value="" style="endArrow=none;html=1;rounded=0;entryX=0;entryY=0.75;entryDx=0;entryDy=0;exitX=1;exitY=0;exitDx=0;exitDy=0;" edge="1" parent="1" source="HeGCxnUVg1iNXxCKtnh3-7" target="HeGCxnUVg1iNXxCKtnh3-3">
          <mxGeometry width="50" height="50" relative="1" as="geometry">
            <mxPoint x="-920" y="705" as="sourcePoint" />
            <mxPoint x="-865" y="660" as="targetPoint" />
          </mxGeometry>
        </mxCell>
        <mxCell id="_SDdMhTvfAspMDNIdv1c-99" value="Price" style="ellipse;whiteSpace=wrap;html=1;" vertex="1" parent="1">
          <mxGeometry x="-842.5" y="700" width="60" height="40" as="geometry" />
        </mxCell>
        <mxCell id="_SDdMhTvfAspMDNIdv1c-100" value="" style="endArrow=none;html=1;rounded=0;exitX=0.5;exitY=0;exitDx=0;exitDy=0;entryX=0.25;entryY=1;entryDx=0;entryDy=0;" edge="1" parent="1" source="_SDdMhTvfAspMDNIdv1c-99" target="HeGCxnUVg1iNXxCKtnh3-3">
          <mxGeometry width="50" height="50" relative="1" as="geometry">
            <mxPoint x="-710" y="640" as="sourcePoint" />
            <mxPoint x="-660" y="590" as="targetPoint" />
          </mxGeometry>
        </mxCell>
        <mxCell id="HeGCxnUVg1iNXxCKtnh3-25" value="" style="endArrow=none;html=1;rounded=0;entryX=0.5;entryY=1;entryDx=0;entryDy=0;exitX=0.5;exitY=0;exitDx=0;exitDy=0;" edge="1" parent="1" source="HeGCxnUVg1iNXxCKtnh3-10" target="HeGCxnUVg1iNXxCKtnh3-3">
          <mxGeometry width="50" height="50" relative="1" as="geometry">
            <mxPoint x="-850" y="696" as="sourcePoint" />
            <mxPoint x="-811" y="640" as="targetPoint" />
          </mxGeometry>
        </mxCell>
        <mxCell id="HeGCxnUVg1iNXxCKtnh3-26" value="" style="endArrow=none;html=1;rounded=0;entryX=0.85;entryY=1.05;entryDx=0;entryDy=0;exitX=0.5;exitY=0;exitDx=0;exitDy=0;entryPerimeter=0;" edge="1" parent="1" source="HeGCxnUVg1iNXxCKtnh3-12" target="HeGCxnUVg1iNXxCKtnh3-3">
          <mxGeometry width="50" height="50" relative="1" as="geometry">
            <mxPoint x="-720" y="680" as="sourcePoint" />
            <mxPoint x="-690" y="630" as="targetPoint" />
          </mxGeometry>
        </mxCell>
        <mxCell id="HeGCxnUVg1iNXxCKtnh3-27" value="" style="endArrow=none;html=1;rounded=0;entryX=1;entryY=0.75;entryDx=0;entryDy=0;exitX=0.383;exitY=-0.025;exitDx=0;exitDy=0;exitPerimeter=0;" edge="1" parent="1" source="HeGCxnUVg1iNXxCKtnh3-20" target="HeGCxnUVg1iNXxCKtnh3-3">
          <mxGeometry width="50" height="50" relative="1" as="geometry">
            <mxPoint x="-702" y="657" as="sourcePoint" />
            <mxPoint x="-710" y="620" as="targetPoint" />
          </mxGeometry>
        </mxCell>
        <mxCell id="HeGCxnUVg1iNXxCKtnh3-29" value="Donations" style="rounded=1;whiteSpace=wrap;html=1;" vertex="1" parent="1">
          <mxGeometry x="-515" y="760" width="120" height="60" as="geometry" />
        </mxCell>
        <mxCell id="HeGCxnUVg1iNXxCKtnh3-30" value="&lt;u&gt;id&lt;/u&gt;" style="ellipse;whiteSpace=wrap;html=1;" vertex="1" parent="1">
          <mxGeometry x="-637.5" y="800" width="60" height="40" as="geometry" />
        </mxCell>
        <mxCell id="HeGCxnUVg1iNXxCKtnh3-31" value="donnoer_id" style="ellipse;whiteSpace=wrap;html=1;" vertex="1" parent="1">
          <mxGeometry x="-580" y="850" width="60" height="40" as="geometry" />
        </mxCell>
        <mxCell id="HeGCxnUVg1iNXxCKtnh3-32" value="medical&lt;div&gt;need_id&lt;/div&gt;" style="ellipse;whiteSpace=wrap;html=1;" vertex="1" parent="1">
          <mxGeometry x="-515" y="870" width="60" height="40" as="geometry" />
        </mxCell>
        <mxCell id="_SDdMhTvfAspMDNIdv1c-105" value="" style="endArrow=none;html=1;rounded=0;entryX=0;entryY=1;entryDx=0;entryDy=0;exitX=1;exitY=0.5;exitDx=0;exitDy=0;" edge="1" parent="1" source="_SDdMhTvfAspMDNIdv1c-104" target="_SDdMhTvfAspMDNIdv1c-23">
          <mxGeometry width="50" height="50" relative="1" as="geometry">
            <mxPoint x="-255" y="610" as="sourcePoint" />
            <mxPoint x="-205" y="560" as="targetPoint" />
          </mxGeometry>
        </mxCell>
        <mxCell id="_SDdMhTvfAspMDNIdv1c-106" value="" style="endArrow=none;html=1;rounded=0;entryX=0;entryY=0.5;entryDx=0;entryDy=0;exitX=1;exitY=0.25;exitDx=0;exitDy=0;" edge="1" parent="1" source="HeGCxnUVg1iNXxCKtnh3-3" target="_SDdMhTvfAspMDNIdv1c-104">
          <mxGeometry width="50" height="50" relative="1" as="geometry">
            <mxPoint x="-275" y="715" as="sourcePoint" />
            <mxPoint x="145" y="580" as="targetPoint" />
          </mxGeometry>
        </mxCell>
        <mxCell id="_SDdMhTvfAspMDNIdv1c-104" value="Request" style="rhombus;whiteSpace=wrap;html=1;" vertex="1" parent="1">
          <mxGeometry x="-465" y="540" width="60" height="60" as="geometry" />
        </mxCell>
        <mxCell id="HeGCxnUVg1iNXxCKtnh3-33" value="amount" style="ellipse;whiteSpace=wrap;html=1;" vertex="1" parent="1">
          <mxGeometry x="-435" y="870" width="60" height="40" as="geometry" />
        </mxCell>
        <mxCell id="_SDdMhTvfAspMDNIdv1c-109" value="1" style="text;html=1;align=center;verticalAlign=middle;whiteSpace=wrap;rounded=0;" vertex="1" parent="1">
          <mxGeometry x="-30" y="500" width="60" height="30" as="geometry" />
        </mxCell>
        <mxCell id="HeGCxnUVg1iNXxCKtnh3-34" value="status" style="ellipse;whiteSpace=wrap;html=1;" vertex="1" parent="1">
          <mxGeometry x="-345" y="845" width="60" height="40" as="geometry" />
        </mxCell>
        <mxCell id="_SDdMhTvfAspMDNIdv1c-107" value="M" style="text;html=1;align=center;verticalAlign=middle;whiteSpace=wrap;rounded=0;" vertex="1" parent="1">
          <mxGeometry x="-755" y="530" width="60" height="30" as="geometry" />
        </mxCell>
        <mxCell id="HeGCxnUVg1iNXxCKtnh3-36" value="" style="endArrow=none;html=1;rounded=0;entryX=1;entryY=0;entryDx=0;entryDy=0;exitX=0;exitY=0.5;exitDx=0;exitDy=0;" edge="1" parent="1" source="HeGCxnUVg1iNXxCKtnh3-29" target="HeGCxnUVg1iNXxCKtnh3-30">
          <mxGeometry width="50" height="50" relative="1" as="geometry">
            <mxPoint x="-502" y="864" as="sourcePoint" />
            <mxPoint x="-565" y="800" as="targetPoint" />
          </mxGeometry>
        </mxCell>
        <mxCell id="HeGCxnUVg1iNXxCKtnh3-37" value="" style="endArrow=none;html=1;rounded=0;entryX=0.5;entryY=0;entryDx=0;entryDy=0;exitX=0;exitY=1;exitDx=0;exitDy=0;" edge="1" parent="1" source="HeGCxnUVg1iNXxCKtnh3-29" target="HeGCxnUVg1iNXxCKtnh3-31">
          <mxGeometry width="50" height="50" relative="1" as="geometry">
            <mxPoint x="-492" y="904" as="sourcePoint" />
            <mxPoint x="-555" y="840" as="targetPoint" />
          </mxGeometry>
        </mxCell>
        <mxCell id="HeGCxnUVg1iNXxCKtnh3-38" value="" style="endArrow=none;html=1;rounded=0;entryX=0.5;entryY=0;entryDx=0;entryDy=0;exitX=0.25;exitY=1;exitDx=0;exitDy=0;" edge="1" parent="1" source="HeGCxnUVg1iNXxCKtnh3-29" target="HeGCxnUVg1iNXxCKtnh3-32">
          <mxGeometry width="50" height="50" relative="1" as="geometry">
            <mxPoint x="-432" y="924" as="sourcePoint" />
            <mxPoint x="-495" y="860" as="targetPoint" />
          </mxGeometry>
        </mxCell>
        <mxCell id="HeGCxnUVg1iNXxCKtnh3-39" value="" style="endArrow=none;html=1;rounded=0;entryX=0.7;entryY=1.017;entryDx=0;entryDy=0;entryPerimeter=0;" edge="1" parent="1" source="HeGCxnUVg1iNXxCKtnh3-33" target="HeGCxnUVg1iNXxCKtnh3-29">
          <mxGeometry width="50" height="50" relative="1" as="geometry">
            <mxPoint x="-362" y="934" as="sourcePoint" />
            <mxPoint x="-425" y="870" as="targetPoint" />
          </mxGeometry>
        </mxCell>
        <mxCell id="HeGCxnUVg1iNXxCKtnh3-40" value="" style="endArrow=none;html=1;rounded=0;entryX=1.017;entryY=0.617;entryDx=0;entryDy=0;exitX=0;exitY=0;exitDx=0;exitDy=0;entryPerimeter=0;" edge="1" parent="1" source="HeGCxnUVg1iNXxCKtnh3-34" target="HeGCxnUVg1iNXxCKtnh3-29">
          <mxGeometry width="50" height="50" relative="1" as="geometry">
            <mxPoint x="-332" y="884" as="sourcePoint" />
            <mxPoint x="-395" y="820" as="targetPoint" />
          </mxGeometry>
        </mxCell>
        <mxCell id="HeGCxnUVg1iNXxCKtnh3-41" value="" style="endArrow=none;html=1;rounded=0;entryX=1;entryY=1;entryDx=0;entryDy=0;exitX=0;exitY=0;exitDx=0;exitDy=0;" edge="1" parent="1" source="HeGCxnUVg1iNXxCKtnh3-3" target="HeGCxnUVg1iNXxCKtnh3-15">
          <mxGeometry width="50" height="50" relative="1" as="geometry">
            <mxPoint x="-852" y="634" as="sourcePoint" />
            <mxPoint x="-915" y="570" as="targetPoint" />
          </mxGeometry>
        </mxCell>
        <mxCell id="HeGCxnUVg1iNXxCKtnh3-42" value="Donate" style="rhombus;whiteSpace=wrap;html=1;" vertex="1" parent="1">
          <mxGeometry x="-355" y="640" width="80" height="80" as="geometry" />
        </mxCell>
        <mxCell id="HeGCxnUVg1iNXxCKtnh3-43" value="" style="endArrow=none;html=1;rounded=0;entryX=0;entryY=0.5;entryDx=0;entryDy=0;exitX=1;exitY=0;exitDx=0;exitDy=0;" edge="1" parent="1" source="HeGCxnUVg1iNXxCKtnh3-42" target="_SDdMhTvfAspMDNIdv1c-22">
          <mxGeometry width="50" height="50" relative="1" as="geometry">
            <mxPoint x="-225" y="670" as="sourcePoint" />
            <mxPoint x="-95" y="650" as="targetPoint" />
          </mxGeometry>
        </mxCell>
        <mxCell id="HeGCxnUVg1iNXxCKtnh3-44" value="" style="endArrow=none;html=1;rounded=0;entryX=0;entryY=1;entryDx=0;entryDy=0;exitX=1;exitY=0;exitDx=0;exitDy=0;" edge="1" parent="1" target="HeGCxnUVg1iNXxCKtnh3-42">
          <mxGeometry width="50" height="50" relative="1" as="geometry">
            <mxPoint x="-465" y="760" as="sourcePoint" />
            <mxPoint x="-365" y="710" as="targetPoint" />
          </mxGeometry>
        </mxCell>
        <mxCell id="HeGCxnUVg1iNXxCKtnh3-45" value="1" style="text;html=1;align=center;verticalAlign=middle;whiteSpace=wrap;rounded=0;" vertex="1" parent="1">
          <mxGeometry x="-245" y="590" width="60" height="30" as="geometry" />
        </mxCell>
        <mxCell id="_SDdMhTvfAspMDNIdv1c-110" value="Request" style="rhombus;whiteSpace=wrap;html=1;" vertex="1" parent="1">
          <mxGeometry x="-970" y="745" width="60" height="60" as="geometry" />
        </mxCell>
        <mxCell id="_SDdMhTvfAspMDNIdv1c-111" value="" style="endArrow=none;html=1;rounded=0;exitX=0.5;exitY=0;exitDx=0;exitDy=0;entryX=0.5;entryY=1;entryDx=0;entryDy=0;" edge="1" parent="1" source="HUlT8sGuP16dZYMkzbt1-5" target="_SDdMhTvfAspMDNIdv1c-110">
          <mxGeometry width="50" height="50" relative="1" as="geometry">
            <mxPoint x="-725" y="800" as="sourcePoint" />
            <mxPoint x="-675" y="750" as="targetPoint" />
          </mxGeometry>
        </mxCell>
        <mxCell id="HeGCxnUVg1iNXxCKtnh3-47" value="M" style="text;html=1;align=center;verticalAlign=middle;whiteSpace=wrap;rounded=0;" vertex="1" parent="1">
          <mxGeometry x="-455" y="710" width="60" height="30" as="geometry" />
        </mxCell>
        <mxCell id="_SDdMhTvfAspMDNIdv1c-112" value="" style="endArrow=none;html=1;rounded=0;exitX=0.5;exitY=0;exitDx=0;exitDy=0;entryX=0.074;entryY=0.978;entryDx=0;entryDy=0;entryPerimeter=0;" edge="1" parent="1" source="_SDdMhTvfAspMDNIdv1c-110" target="HeGCxnUVg1iNXxCKtnh3-3">
          <mxGeometry width="50" height="50" relative="1" as="geometry">
            <mxPoint x="-935" y="890" as="sourcePoint" />
            <mxPoint x="-915" y="820" as="targetPoint" />
          </mxGeometry>
        </mxCell>
        <mxCell id="_SDdMhTvfAspMDNIdv1c-113" value="1" style="text;html=1;align=center;verticalAlign=middle;whiteSpace=wrap;rounded=0;" vertex="1" parent="1">
          <mxGeometry x="-1030" y="820" width="60" height="30" as="geometry" />
        </mxCell>
        <mxCell id="HeGCxnUVg1iNXxCKtnh3-48" value="have" style="rhombus;whiteSpace=wrap;html=1;" vertex="1" parent="1">
          <mxGeometry x="-615" y="620" width="80" height="80" as="geometry" />
        </mxCell>
        <mxCell id="HeGCxnUVg1iNXxCKtnh3-49" value="" style="endArrow=none;html=1;rounded=0;entryX=1;entryY=1;entryDx=0;entryDy=0;exitX=0.154;exitY=-0.006;exitDx=0;exitDy=0;exitPerimeter=0;" edge="1" parent="1" source="HeGCxnUVg1iNXxCKtnh3-29" target="HeGCxnUVg1iNXxCKtnh3-48">
          <mxGeometry width="50" height="50" relative="1" as="geometry">
            <mxPoint x="-515" y="760" as="sourcePoint" />
            <mxPoint x="-415" y="710" as="targetPoint" />
          </mxGeometry>
        </mxCell>
        <mxCell id="_SDdMhTvfAspMDNIdv1c-114" value="M" style="text;html=1;align=center;verticalAlign=middle;whiteSpace=wrap;rounded=0;" vertex="1" parent="1">
          <mxGeometry x="-975" y="700" width="60" height="30" as="geometry" />
        </mxCell>
        <mxCell id="HeGCxnUVg1iNXxCKtnh3-50" value="" style="endArrow=none;html=1;rounded=0;entryX=1;entryY=0.5;entryDx=0;entryDy=0;exitX=0;exitY=0;exitDx=0;exitDy=0;" edge="1" parent="1" source="HeGCxnUVg1iNXxCKtnh3-48" target="HeGCxnUVg1iNXxCKtnh3-3">
          <mxGeometry width="50" height="50" relative="1" as="geometry">
            <mxPoint x="-607" y="720" as="sourcePoint" />
            <mxPoint x="-625" y="650" as="targetPoint" />
          </mxGeometry>
        </mxCell>
        <mxCell id="HeGCxnUVg1iNXxCKtnh3-51" value="1" style="text;html=1;align=center;verticalAlign=middle;whiteSpace=wrap;rounded=0;" vertex="1" parent="1">
          <mxGeometry x="-515" y="725" width="60" height="30" as="geometry" />
        </mxCell>
        <mxCell id="_SDdMhTvfAspMDNIdv1c-115" value="Org Id" style="ellipse;whiteSpace=wrap;html=1;" vertex="1" parent="1">
          <mxGeometry x="-985" y="640" width="60" height="40" as="geometry" />
        </mxCell>
        <mxCell id="_SDdMhTvfAspMDNIdv1c-116" value="" style="endArrow=none;html=1;rounded=0;entryX=0;entryY=1;entryDx=0;entryDy=0;exitX=1;exitY=0;exitDx=0;exitDy=0;" edge="1" parent="1" source="_SDdMhTvfAspMDNIdv1c-115" target="HeGCxnUVg1iNXxCKtnh3-3">
          <mxGeometry width="50" height="50" relative="1" as="geometry">
            <mxPoint x="-945" y="770" as="sourcePoint" />
            <mxPoint x="-895" y="720" as="targetPoint" />
          </mxGeometry>
        </mxCell>
        <mxCell id="HeGCxnUVg1iNXxCKtnh3-52" value="M" style="text;html=1;align=center;verticalAlign=middle;whiteSpace=wrap;rounded=0;" vertex="1" parent="1">
          <mxGeometry x="-745" y="580" width="60" height="30" as="geometry" />
        </mxCell>
        <mxCell id="_SDdMhTvfAspMDNIdv1c-117" value="Supply" style="rhombus;whiteSpace=wrap;html=1;" vertex="1" parent="1">
          <mxGeometry x="-880" y="755" width="60" height="60" as="geometry" />
        </mxCell>
        <mxCell id="_SDdMhTvfAspMDNIdv1c-118" value="" style="endArrow=none;html=1;rounded=0;exitX=0.75;exitY=0;exitDx=0;exitDy=0;entryX=0.5;entryY=1;entryDx=0;entryDy=0;" edge="1" parent="1" source="HUlT8sGuP16dZYMkzbt1-5" target="_SDdMhTvfAspMDNIdv1c-117">
          <mxGeometry width="50" height="50" relative="1" as="geometry">
            <mxPoint x="-915" y="800" as="sourcePoint" />
            <mxPoint x="-865" y="750" as="targetPoint" />
          </mxGeometry>
        </mxCell>
        <mxCell id="_SDdMhTvfAspMDNIdv1c-120" value="" style="endArrow=none;html=1;rounded=0;exitX=0.5;exitY=0;exitDx=0;exitDy=0;entryX=0.25;entryY=1;entryDx=0;entryDy=0;" edge="1" parent="1" source="_SDdMhTvfAspMDNIdv1c-117" target="HeGCxnUVg1iNXxCKtnh3-3">
          <mxGeometry width="50" height="50" relative="1" as="geometry">
            <mxPoint x="-795" y="900" as="sourcePoint" />
            <mxPoint x="-715" y="840" as="targetPoint" />
          </mxGeometry>
        </mxCell>
        <mxCell id="_SDdMhTvfAspMDNIdv1c-121" value="Pationt Id" style="ellipse;whiteSpace=wrap;html=1;" vertex="1" parent="1">
          <mxGeometry x="-865" y="490" width="60" height="40" as="geometry" />
        </mxCell>
        <mxCell id="_SDdMhTvfAspMDNIdv1c-122" value="" style="endArrow=none;html=1;rounded=0;entryX=0.5;entryY=1;entryDx=0;entryDy=0;exitX=0.5;exitY=0;exitDx=0;exitDy=0;" edge="1" parent="1" source="HeGCxnUVg1iNXxCKtnh3-3" target="_SDdMhTvfAspMDNIdv1c-121">
          <mxGeometry width="50" height="50" relative="1" as="geometry">
            <mxPoint x="-905" y="656" as="sourcePoint" />
            <mxPoint x="-861" y="630" as="targetPoint" />
          </mxGeometry>
        </mxCell>
        <mxCell id="_SDdMhTvfAspMDNIdv1c-123" value="Health Guide" style="rounded=1;whiteSpace=wrap;html=1;" vertex="1" parent="1">
          <mxGeometry x="-562.5" y="120" width="120" height="60" as="geometry" />
        </mxCell>
        <mxCell id="_SDdMhTvfAspMDNIdv1c-124" value="&lt;u&gt;Id&lt;/u&gt;" style="ellipse;whiteSpace=wrap;html=1;" vertex="1" parent="1">
          <mxGeometry x="-637.5" y="40" width="60" height="40" as="geometry" />
        </mxCell>
        <mxCell id="_SDdMhTvfAspMDNIdv1c-125" value="" style="endArrow=none;html=1;rounded=0;entryX=1;entryY=1;entryDx=0;entryDy=0;exitX=0;exitY=0;exitDx=0;exitDy=0;" edge="1" parent="1" source="_SDdMhTvfAspMDNIdv1c-123" target="_SDdMhTvfAspMDNIdv1c-124">
          <mxGeometry width="50" height="50" relative="1" as="geometry">
            <mxPoint x="-547.5" y="250" as="sourcePoint" />
            <mxPoint x="-497.5" y="200" as="targetPoint" />
          </mxGeometry>
        </mxCell>
        <mxCell id="_SDdMhTvfAspMDNIdv1c-128" value="Guide Id" style="ellipse;whiteSpace=wrap;html=1;" vertex="1" parent="1">
          <mxGeometry x="-310" y="480" width="60" height="40" as="geometry" />
        </mxCell>
        <mxCell id="_SDdMhTvfAspMDNIdv1c-129" value="" style="endArrow=none;html=1;rounded=0;exitX=0.5;exitY=0;exitDx=0;exitDy=0;entryX=0.25;entryY=1;entryDx=0;entryDy=0;" edge="1" parent="1" source="_SDdMhTvfAspMDNIdv1c-128" target="_SDdMhTvfAspMDNIdv1c-68">
          <mxGeometry width="50" height="50" relative="1" as="geometry">
            <mxPoint x="-280" y="496" as="sourcePoint" />
            <mxPoint x="-241" y="470" as="targetPoint" />
          </mxGeometry>
        </mxCell>
        <mxCell id="_SDdMhTvfAspMDNIdv1c-130" value="Have" style="rhombus;whiteSpace=wrap;html=1;" vertex="1" parent="1">
          <mxGeometry x="-305" y="200" width="60" height="60" as="geometry" />
        </mxCell>
        <mxCell id="_SDdMhTvfAspMDNIdv1c-131" value="" style="endArrow=none;html=1;rounded=0;entryX=1;entryY=0.5;entryDx=0;entryDy=0;exitX=0.5;exitY=0;exitDx=0;exitDy=0;" edge="1" parent="1" source="_SDdMhTvfAspMDNIdv1c-68" target="_SDdMhTvfAspMDNIdv1c-130">
          <mxGeometry width="50" height="50" relative="1" as="geometry">
            <mxPoint x="-370" y="430" as="sourcePoint" />
            <mxPoint x="-320" y="380" as="targetPoint" />
          </mxGeometry>
        </mxCell>
        <mxCell id="_SDdMhTvfAspMDNIdv1c-132" value="" style="endArrow=none;html=1;rounded=0;exitX=0;exitY=0.5;exitDx=0;exitDy=0;entryX=1;entryY=0.5;entryDx=0;entryDy=0;" edge="1" parent="1" source="_SDdMhTvfAspMDNIdv1c-130" target="_SDdMhTvfAspMDNIdv1c-123">
          <mxGeometry width="50" height="50" relative="1" as="geometry">
            <mxPoint x="-370" y="430" as="sourcePoint" />
            <mxPoint x="-320" y="380" as="targetPoint" />
          </mxGeometry>
        </mxCell>
        <mxCell id="_SDdMhTvfAspMDNIdv1c-133" value="M" style="text;html=1;align=center;verticalAlign=middle;whiteSpace=wrap;rounded=0;" vertex="1" parent="1">
          <mxGeometry x="-455" y="310" width="60" height="30" as="geometry" />
        </mxCell>
        <mxCell id="_SDdMhTvfAspMDNIdv1c-134" value="1" style="text;html=1;align=center;verticalAlign=middle;whiteSpace=wrap;rounded=0;" vertex="1" parent="1">
          <mxGeometry x="-435" y="120" width="60" height="30" as="geometry" />
        </mxCell>
        <mxCell id="_SDdMhTvfAspMDNIdv1c-140" value="Category_ar" style="ellipse;whiteSpace=wrap;html=1;" vertex="1" parent="1">
          <mxGeometry x="-1037.5" y="20" width="100" height="60" as="geometry" />
        </mxCell>
        <mxCell id="_SDdMhTvfAspMDNIdv1c-141" value="Title_en" style="ellipse;whiteSpace=wrap;html=1;" vertex="1" parent="1">
          <mxGeometry x="-1007.5" y="170" width="60" height="40" as="geometry" />
        </mxCell>
        <mxCell id="_SDdMhTvfAspMDNIdv1c-142" value="Content_en" style="ellipse;whiteSpace=wrap;html=1;" vertex="1" parent="1">
          <mxGeometry x="-927.5" y="230" width="60" height="40" as="geometry" />
        </mxCell>
        <mxCell id="_SDdMhTvfAspMDNIdv1c-143" value="Health Guide Translation" style="rounded=1;whiteSpace=wrap;html=1;" vertex="1" parent="1">
          <mxGeometry x="-877.5" y="120" width="120" height="60" as="geometry" />
        </mxCell>
        <mxCell id="_SDdMhTvfAspMDNIdv1c-144" value="Have" style="rhombus;whiteSpace=wrap;html=1;" vertex="1" parent="1">
          <mxGeometry x="-697.5" y="105" width="60" height="60" as="geometry" />
        </mxCell>
        <mxCell id="_SDdMhTvfAspMDNIdv1c-145" value="" style="endArrow=none;html=1;rounded=0;entryX=0;entryY=0.5;entryDx=0;entryDy=0;exitX=1;exitY=0.5;exitDx=0;exitDy=0;" edge="1" parent="1" source="_SDdMhTvfAspMDNIdv1c-144" target="_SDdMhTvfAspMDNIdv1c-123">
          <mxGeometry width="50" height="50" relative="1" as="geometry">
            <mxPoint x="-577.5" y="310" as="sourcePoint" />
            <mxPoint x="-527.5" y="260" as="targetPoint" />
          </mxGeometry>
        </mxCell>
        <mxCell id="_SDdMhTvfAspMDNIdv1c-146" value="" style="endArrow=none;html=1;rounded=0;entryX=1;entryY=0.5;entryDx=0;entryDy=0;exitX=0;exitY=0.5;exitDx=0;exitDy=0;" edge="1" parent="1" source="_SDdMhTvfAspMDNIdv1c-144" target="_SDdMhTvfAspMDNIdv1c-143">
          <mxGeometry width="50" height="50" relative="1" as="geometry">
            <mxPoint x="-587.5" y="200" as="sourcePoint" />
            <mxPoint x="-512.5" y="215" as="targetPoint" />
          </mxGeometry>
        </mxCell>
        <mxCell id="_SDdMhTvfAspMDNIdv1c-147" value="Category_en" style="ellipse;whiteSpace=wrap;html=1;" vertex="1" parent="1">
          <mxGeometry x="-1037.5" y="100" width="100" height="60" as="geometry" />
        </mxCell>
        <mxCell id="_SDdMhTvfAspMDNIdv1c-148" value="Title_ar" style="ellipse;whiteSpace=wrap;html=1;" vertex="1" parent="1">
          <mxGeometry x="-1007.5" y="210" width="60" height="40" as="geometry" />
        </mxCell>
        <mxCell id="_SDdMhTvfAspMDNIdv1c-149" value="Content_ar" style="ellipse;whiteSpace=wrap;html=1;" vertex="1" parent="1">
          <mxGeometry x="-827.5" y="250" width="60" height="40" as="geometry" />
        </mxCell>
        <mxCell id="_SDdMhTvfAspMDNIdv1c-150" value="" style="endArrow=none;html=1;rounded=0;exitX=0.5;exitY=0;exitDx=0;exitDy=0;entryX=0.083;entryY=1;entryDx=0;entryDy=0;entryPerimeter=0;" edge="1" parent="1" source="_SDdMhTvfAspMDNIdv1c-142" target="_SDdMhTvfAspMDNIdv1c-143">
          <mxGeometry width="50" height="50" relative="1" as="geometry">
            <mxPoint x="-847.5" y="310" as="sourcePoint" />
            <mxPoint x="-797.5" y="260" as="targetPoint" />
          </mxGeometry>
        </mxCell>
        <mxCell id="HeGCxnUVg1iNXxCKtnh3-53" value="alerts" style="rounded=1;whiteSpace=wrap;html=1;" vertex="1" parent="1">
          <mxGeometry x="-1257.5" y="92.5" width="120" height="60" as="geometry" />
        </mxCell>
        <mxCell id="_SDdMhTvfAspMDNIdv1c-151" value="" style="endArrow=none;html=1;rounded=0;exitX=0.5;exitY=0;exitDx=0;exitDy=0;entryX=0.5;entryY=1;entryDx=0;entryDy=0;" edge="1" parent="1" source="_SDdMhTvfAspMDNIdv1c-149" target="_SDdMhTvfAspMDNIdv1c-143">
          <mxGeometry width="50" height="50" relative="1" as="geometry">
            <mxPoint x="-857.5" y="260" as="sourcePoint" />
            <mxPoint x="-827.5" y="210" as="targetPoint" />
          </mxGeometry>
        </mxCell>
        <mxCell id="_SDdMhTvfAspMDNIdv1c-153" value="" style="endArrow=none;html=1;rounded=0;exitX=1;exitY=0.5;exitDx=0;exitDy=0;entryX=0;entryY=1;entryDx=0;entryDy=0;" edge="1" parent="1" source="_SDdMhTvfAspMDNIdv1c-148" target="_SDdMhTvfAspMDNIdv1c-143">
          <mxGeometry width="50" height="50" relative="1" as="geometry">
            <mxPoint x="-877.5" y="235" as="sourcePoint" />
            <mxPoint x="-807.5" y="210" as="targetPoint" />
          </mxGeometry>
        </mxCell>
        <mxCell id="_SDdMhTvfAspMDNIdv1c-154" value="" style="endArrow=none;html=1;rounded=0;exitX=1;exitY=0.5;exitDx=0;exitDy=0;entryX=0;entryY=0.25;entryDx=0;entryDy=0;" edge="1" parent="1" source="_SDdMhTvfAspMDNIdv1c-147" target="_SDdMhTvfAspMDNIdv1c-143">
          <mxGeometry width="50" height="50" relative="1" as="geometry">
            <mxPoint x="-887.5" y="205" as="sourcePoint" />
            <mxPoint x="-817.5" y="180" as="targetPoint" />
          </mxGeometry>
        </mxCell>
        <mxCell id="_SDdMhTvfAspMDNIdv1c-155" value="" style="endArrow=none;html=1;rounded=0;entryX=0;entryY=0;entryDx=0;entryDy=0;exitX=1;exitY=1;exitDx=0;exitDy=0;" edge="1" parent="1" source="_SDdMhTvfAspMDNIdv1c-140" target="_SDdMhTvfAspMDNIdv1c-143">
          <mxGeometry width="50" height="50" relative="1" as="geometry">
            <mxPoint x="-897.5" y="100" as="sourcePoint" />
            <mxPoint x="-827.5" y="115" as="targetPoint" />
          </mxGeometry>
        </mxCell>
        <mxCell id="_SDdMhTvfAspMDNIdv1c-152" value="" style="endArrow=none;html=1;rounded=0;exitX=1;exitY=0.5;exitDx=0;exitDy=0;entryX=0;entryY=0.75;entryDx=0;entryDy=0;" edge="1" parent="1" source="_SDdMhTvfAspMDNIdv1c-141" target="_SDdMhTvfAspMDNIdv1c-143">
          <mxGeometry width="50" height="50" relative="1" as="geometry">
            <mxPoint x="-787.5" y="290" as="sourcePoint" />
            <mxPoint x="-807.5" y="220" as="targetPoint" />
          </mxGeometry>
        </mxCell>
        <mxCell id="_SDdMhTvfAspMDNIdv1c-156" value="M" style="text;html=1;align=center;verticalAlign=middle;whiteSpace=wrap;rounded=0;" vertex="1" parent="1">
          <mxGeometry x="-772.5" y="100" width="60" height="30" as="geometry" />
        </mxCell>
        <mxCell id="_SDdMhTvfAspMDNIdv1c-157" value="1" style="text;html=1;align=center;verticalAlign=middle;whiteSpace=wrap;rounded=0;" vertex="1" parent="1">
          <mxGeometry x="-627.5" y="110" width="60" height="30" as="geometry" />
        </mxCell>
        <mxCell id="HeGCxnUVg1iNXxCKtnh3-54" value="&lt;u&gt;id&amp;nbsp;&lt;/u&gt;" style="ellipse;whiteSpace=wrap;html=1;" vertex="1" parent="1">
          <mxGeometry x="-1367.5" y="102.5" width="60" height="40" as="geometry" />
        </mxCell>
        <mxCell id="HeGCxnUVg1iNXxCKtnh3-55" value="title" style="ellipse;whiteSpace=wrap;html=1;" vertex="1" parent="1">
          <mxGeometry x="-1317.5" y="162.5" width="60" height="40" as="geometry" />
        </mxCell>
        <mxCell id="HeGCxnUVg1iNXxCKtnh3-56" value="description" style="ellipse;whiteSpace=wrap;html=1;" vertex="1" parent="1">
          <mxGeometry x="-1247.5" y="187.5" width="60" height="40" as="geometry" />
        </mxCell>
        <mxCell id="HeGCxnUVg1iNXxCKtnh3-57" value="type&amp;nbsp;" style="ellipse;whiteSpace=wrap;html=1;" vertex="1" parent="1">
          <mxGeometry x="-1147.5" y="182.5" width="60" height="40" as="geometry" />
        </mxCell>
        <mxCell id="HeGCxnUVg1iNXxCKtnh3-60" value="" style="endArrow=none;html=1;rounded=0;entryX=0;entryY=0.5;entryDx=0;entryDy=0;exitX=1;exitY=0.5;exitDx=0;exitDy=0;" edge="1" parent="1" source="HeGCxnUVg1iNXxCKtnh3-54" target="HeGCxnUVg1iNXxCKtnh3-53">
          <mxGeometry width="50" height="50" relative="1" as="geometry">
            <mxPoint x="-1317.5" y="117.5" as="sourcePoint" />
            <mxPoint x="-1157.5" y="162.5" as="targetPoint" />
          </mxGeometry>
        </mxCell>
        <mxCell id="HeGCxnUVg1iNXxCKtnh3-61" value="" style="endArrow=none;html=1;rounded=0;entryX=0.325;entryY=1;entryDx=0;entryDy=0;exitX=1;exitY=0;exitDx=0;exitDy=0;entryPerimeter=0;" edge="1" parent="1" source="HeGCxnUVg1iNXxCKtnh3-55" target="HeGCxnUVg1iNXxCKtnh3-53">
          <mxGeometry width="50" height="50" relative="1" as="geometry">
            <mxPoint x="-1247.5" y="172.5" as="sourcePoint" />
            <mxPoint x="-1197.5" y="172.5" as="targetPoint" />
          </mxGeometry>
        </mxCell>
        <mxCell id="HeGCxnUVg1iNXxCKtnh3-62" value="" style="endArrow=none;html=1;rounded=0;entryX=0.5;entryY=1;entryDx=0;entryDy=0;exitX=0.5;exitY=0;exitDx=0;exitDy=0;" edge="1" parent="1" source="HeGCxnUVg1iNXxCKtnh3-56" target="HeGCxnUVg1iNXxCKtnh3-53">
          <mxGeometry width="50" height="50" relative="1" as="geometry">
            <mxPoint x="-1137.5" y="278.5" as="sourcePoint" />
            <mxPoint x="-1089.5" y="262.5" as="targetPoint" />
          </mxGeometry>
        </mxCell>
        <mxCell id="HeGCxnUVg1iNXxCKtnh3-63" value="" style="endArrow=none;html=1;rounded=0;entryX=0.75;entryY=1;entryDx=0;entryDy=0;exitX=0.317;exitY=0.075;exitDx=0;exitDy=0;exitPerimeter=0;" edge="1" parent="1" source="HeGCxnUVg1iNXxCKtnh3-57" target="HeGCxnUVg1iNXxCKtnh3-53">
          <mxGeometry width="50" height="50" relative="1" as="geometry">
            <mxPoint x="-1147.5" y="178.5" as="sourcePoint" />
            <mxPoint x="-1099.5" y="162.5" as="targetPoint" />
          </mxGeometry>
        </mxCell>
        <mxCell id="HeGCxnUVg1iNXxCKtnh3-64" value="workshop" style="rounded=1;whiteSpace=wrap;html=1;" vertex="1" parent="1">
          <mxGeometry x="-1277.5" y="332.5" width="120" height="60" as="geometry" />
        </mxCell>
        <mxCell id="tEUjMr_czzXqGhr919Wp-1" value="&lt;u&gt;id&amp;nbsp;&lt;/u&gt;" style="ellipse;whiteSpace=wrap;html=1;" vertex="1" parent="1">
          <mxGeometry x="-1397.5" y="367.5" width="60" height="40" as="geometry" />
        </mxCell>
        <mxCell id="tEUjMr_czzXqGhr919Wp-2" value="title" style="ellipse;whiteSpace=wrap;html=1;" vertex="1" parent="1">
          <mxGeometry x="-1347.5" y="427.5" width="60" height="40" as="geometry" />
        </mxCell>
        <mxCell id="tEUjMr_czzXqGhr919Wp-3" value="description" style="ellipse;whiteSpace=wrap;html=1;" vertex="1" parent="1">
          <mxGeometry x="-1277.5" y="452.5" width="60" height="40" as="geometry" />
        </mxCell>
        <mxCell id="tEUjMr_czzXqGhr919Wp-4" value="type&amp;nbsp;" style="ellipse;whiteSpace=wrap;html=1;" vertex="1" parent="1">
          <mxGeometry x="-1207.5" y="457.5" width="60" height="40" as="geometry" />
        </mxCell>
        <mxCell id="tEUjMr_czzXqGhr919Wp-5" value="Link" style="ellipse;whiteSpace=wrap;html=1;" vertex="1" parent="1">
          <mxGeometry x="-1137.5" y="452.5" width="60" height="40" as="geometry" />
        </mxCell>
        <mxCell id="tEUjMr_czzXqGhr919Wp-6" value="Location" style="ellipse;whiteSpace=wrap;html=1;" vertex="1" parent="1">
          <mxGeometry x="-1097.5" y="392.5" width="60" height="40" as="geometry" />
        </mxCell>
        <mxCell id="tEUjMr_czzXqGhr919Wp-7" value="" style="endArrow=none;html=1;rounded=0;exitX=1;exitY=0.5;exitDx=0;exitDy=0;entryX=0;entryY=0.75;entryDx=0;entryDy=0;" edge="1" parent="1" source="tEUjMr_czzXqGhr919Wp-1" target="HeGCxnUVg1iNXxCKtnh3-64">
          <mxGeometry width="50" height="50" relative="1" as="geometry">
            <mxPoint x="-1257.5" y="432.5" as="sourcePoint" />
            <mxPoint x="-1207.5" y="382.5" as="targetPoint" />
          </mxGeometry>
        </mxCell>
        <mxCell id="tEUjMr_czzXqGhr919Wp-8" value="" style="endArrow=none;html=1;rounded=0;exitX=0.5;exitY=0;exitDx=0;exitDy=0;entryX=0;entryY=1;entryDx=0;entryDy=0;" edge="1" parent="1" source="tEUjMr_czzXqGhr919Wp-2" target="HeGCxnUVg1iNXxCKtnh3-64">
          <mxGeometry width="50" height="50" relative="1" as="geometry">
            <mxPoint x="-1257.5" y="432.5" as="sourcePoint" />
            <mxPoint x="-1197.5" y="422.5" as="targetPoint" />
          </mxGeometry>
        </mxCell>
        <mxCell id="tEUjMr_czzXqGhr919Wp-9" value="" style="endArrow=none;html=1;rounded=0;exitX=0.5;exitY=0;exitDx=0;exitDy=0;entryX=0.25;entryY=1;entryDx=0;entryDy=0;" edge="1" parent="1" source="tEUjMr_czzXqGhr919Wp-3" target="HeGCxnUVg1iNXxCKtnh3-64">
          <mxGeometry width="50" height="50" relative="1" as="geometry">
            <mxPoint x="-1257.5" y="447.5" as="sourcePoint" />
            <mxPoint x="-1217.5" y="412.5" as="targetPoint" />
          </mxGeometry>
        </mxCell>
        <mxCell id="tEUjMr_czzXqGhr919Wp-10" value="" style="endArrow=none;html=1;rounded=0;exitX=0.5;exitY=0;exitDx=0;exitDy=0;entryX=0.5;entryY=1;entryDx=0;entryDy=0;" edge="1" parent="1" source="tEUjMr_czzXqGhr919Wp-4" target="HeGCxnUVg1iNXxCKtnh3-64">
          <mxGeometry width="50" height="50" relative="1" as="geometry">
            <mxPoint x="-1237.5" y="472.5" as="sourcePoint" />
            <mxPoint x="-1237.5" y="412.5" as="targetPoint" />
          </mxGeometry>
        </mxCell>
        <mxCell id="tEUjMr_czzXqGhr919Wp-11" value="" style="endArrow=none;html=1;rounded=0;exitX=0;exitY=0;exitDx=0;exitDy=0;entryX=0.75;entryY=1;entryDx=0;entryDy=0;" edge="1" parent="1" source="tEUjMr_czzXqGhr919Wp-5" target="HeGCxnUVg1iNXxCKtnh3-64">
          <mxGeometry width="50" height="50" relative="1" as="geometry">
            <mxPoint x="-1107.5" y="477.5" as="sourcePoint" />
            <mxPoint x="-1147.5" y="412.5" as="targetPoint" />
          </mxGeometry>
        </mxCell>
        <mxCell id="tEUjMr_czzXqGhr919Wp-12" value="" style="endArrow=none;html=1;rounded=0;exitX=0;exitY=0.5;exitDx=0;exitDy=0;entryX=1;entryY=0.5;entryDx=0;entryDy=0;" edge="1" parent="1" source="tEUjMr_czzXqGhr919Wp-6" target="HeGCxnUVg1iNXxCKtnh3-64">
          <mxGeometry width="50" height="50" relative="1" as="geometry">
            <mxPoint x="-1088.5" y="488.5" as="sourcePoint" />
            <mxPoint x="-1147.5" y="422.5" as="targetPoint" />
          </mxGeometry>
        </mxCell>
        <mxCell id="tEUjMr_czzXqGhr919Wp-13" value="Anynomous Messages" style="rounded=1;whiteSpace=wrap;html=1;" vertex="1" parent="1">
          <mxGeometry x="-25" y="175" width="100" height="60" as="geometry" />
        </mxCell>
        <mxCell id="HeGCxnUVg1iNXxCKtnh3-65" value="SupportGroups" style="rounded=1;whiteSpace=wrap;html=1;" vertex="1" parent="1">
          <mxGeometry x="730" y="650" width="100" height="60" as="geometry" />
        </mxCell>
        <mxCell id="HeGCxnUVg1iNXxCKtnh3-66" value="&lt;u&gt;id&lt;/u&gt;" style="ellipse;whiteSpace=wrap;html=1;" vertex="1" parent="1">
          <mxGeometry x="625" y="595" width="60" height="40" as="geometry" />
        </mxCell>
        <mxCell id="HeGCxnUVg1iNXxCKtnh3-67" value="name" style="ellipse;whiteSpace=wrap;html=1;" vertex="1" parent="1">
          <mxGeometry x="685" y="565" width="60" height="40" as="geometry" />
        </mxCell>
        <mxCell id="tEUjMr_czzXqGhr919Wp-16" value="&lt;u&gt;Id&lt;/u&gt;" style="ellipse;whiteSpace=wrap;html=1;" vertex="1" parent="1">
          <mxGeometry x="-120" y="145" width="60" height="40" as="geometry" />
        </mxCell>
        <mxCell id="tEUjMr_czzXqGhr919Wp-17" value="" style="endArrow=none;html=1;rounded=0;entryX=0;entryY=0.25;entryDx=0;entryDy=0;exitX=1;exitY=1;exitDx=0;exitDy=0;" edge="1" parent="1" source="tEUjMr_czzXqGhr919Wp-16" target="tEUjMr_czzXqGhr919Wp-13">
          <mxGeometry width="50" height="50" relative="1" as="geometry">
            <mxPoint x="-325" y="185" as="sourcePoint" />
            <mxPoint x="-195" y="180" as="targetPoint" />
          </mxGeometry>
        </mxCell>
        <mxCell id="HeGCxnUVg1iNXxCKtnh3-69" value="category" style="ellipse;whiteSpace=wrap;html=1;" vertex="1" parent="1">
          <mxGeometry x="735" y="520" width="60" height="40" as="geometry" />
        </mxCell>
        <mxCell id="tEUjMr_czzXqGhr919Wp-18" value="isReplay" style="ellipse;whiteSpace=wrap;html=1;" vertex="1" parent="1">
          <mxGeometry x="-125" y="220" width="60" height="40" as="geometry" />
        </mxCell>
        <mxCell id="tEUjMr_czzXqGhr919Wp-19" value="Replay Id" style="ellipse;whiteSpace=wrap;html=1;" vertex="1" parent="1">
          <mxGeometry x="-100" y="270" width="60" height="40" as="geometry" />
        </mxCell>
        <mxCell id="tEUjMr_czzXqGhr919Wp-20" value="Content" style="ellipse;whiteSpace=wrap;html=1;" vertex="1" parent="1">
          <mxGeometry x="-40" y="310" width="60" height="40" as="geometry" />
        </mxCell>
        <mxCell id="tEUjMr_czzXqGhr919Wp-21" value="Link" style="ellipse;whiteSpace=wrap;html=1;" vertex="1" parent="1">
          <mxGeometry x="35" y="310" width="60" height="40" as="geometry" />
        </mxCell>
        <mxCell id="tEUjMr_czzXqGhr919Wp-22" value="" style="endArrow=none;html=1;rounded=0;entryX=0;entryY=0.75;entryDx=0;entryDy=0;exitX=1;exitY=0.5;exitDx=0;exitDy=0;" edge="1" parent="1" source="tEUjMr_czzXqGhr919Wp-18" target="tEUjMr_czzXqGhr919Wp-13">
          <mxGeometry width="50" height="50" relative="1" as="geometry">
            <mxPoint x="-5" y="240" as="sourcePoint" />
            <mxPoint x="39" y="251" as="targetPoint" />
          </mxGeometry>
        </mxCell>
        <mxCell id="tEUjMr_czzXqGhr919Wp-23" value="" style="endArrow=none;html=1;rounded=0;entryX=0.17;entryY=0.982;entryDx=0;entryDy=0;exitX=1;exitY=0;exitDx=0;exitDy=0;entryPerimeter=0;" edge="1" parent="1" source="tEUjMr_czzXqGhr919Wp-19" target="tEUjMr_czzXqGhr919Wp-13">
          <mxGeometry width="50" height="50" relative="1" as="geometry">
            <mxPoint x="15" y="290" as="sourcePoint" />
            <mxPoint x="55" y="270" as="targetPoint" />
          </mxGeometry>
        </mxCell>
        <mxCell id="tEUjMr_czzXqGhr919Wp-24" value="" style="endArrow=none;html=1;rounded=0;entryX=0.25;entryY=1;entryDx=0;entryDy=0;exitX=0.5;exitY=0;exitDx=0;exitDy=0;" edge="1" parent="1" source="tEUjMr_czzXqGhr919Wp-20" target="tEUjMr_czzXqGhr919Wp-13">
          <mxGeometry width="50" height="50" relative="1" as="geometry">
            <mxPoint x="15" y="312" as="sourcePoint" />
            <mxPoint x="56" y="270" as="targetPoint" />
          </mxGeometry>
        </mxCell>
        <mxCell id="tEUjMr_czzXqGhr919Wp-25" value="" style="endArrow=none;html=1;rounded=0;exitX=0;exitY=0;exitDx=0;exitDy=0;" edge="1" parent="1" source="tEUjMr_czzXqGhr919Wp-21">
          <mxGeometry width="50" height="50" relative="1" as="geometry">
            <mxPoint x="25" y="345" as="sourcePoint" />
            <mxPoint x="25" y="235" as="targetPoint" />
          </mxGeometry>
        </mxCell>
        <mxCell id="HeGCxnUVg1iNXxCKtnh3-74" value="group_member" style="rounded=1;whiteSpace=wrap;html=1;" vertex="1" parent="1">
          <mxGeometry x="615" y="905" width="100" height="60" as="geometry" />
        </mxCell>
        <mxCell id="tEUjMr_czzXqGhr919Wp-26" value="Replay To" style="rhombus;whiteSpace=wrap;html=1;" vertex="1" parent="1">
          <mxGeometry x="25" y="10" width="80" height="80" as="geometry" />
        </mxCell>
        <mxCell id="tEUjMr_czzXqGhr919Wp-27" value="" style="endArrow=none;html=1;rounded=0;exitX=0.5;exitY=0;exitDx=0;exitDy=0;entryX=0;entryY=0.5;entryDx=0;entryDy=0;" edge="1" parent="1" source="tEUjMr_czzXqGhr919Wp-13" target="tEUjMr_czzXqGhr919Wp-26">
          <mxGeometry width="50" height="50" relative="1" as="geometry">
            <mxPoint x="-15" y="90" as="sourcePoint" />
            <mxPoint x="35" y="40" as="targetPoint" />
          </mxGeometry>
        </mxCell>
        <mxCell id="HeGCxnUVg1iNXxCKtnh3-77" value="user-id" style="ellipse;whiteSpace=wrap;html=1;" vertex="1" parent="1">
          <mxGeometry x="685" y="995" width="60" height="40" as="geometry" />
        </mxCell>
        <mxCell id="HeGCxnUVg1iNXxCKtnh3-76" value="group-id" style="ellipse;whiteSpace=wrap;html=1;" vertex="1" parent="1">
          <mxGeometry x="605" y="995" width="60" height="40" as="geometry" />
        </mxCell>
        <mxCell id="tEUjMr_czzXqGhr919Wp-28" value="" style="endArrow=none;html=1;rounded=0;exitX=1;exitY=0.5;exitDx=0;exitDy=0;entryX=1;entryY=0.5;entryDx=0;entryDy=0;" edge="1" parent="1" source="tEUjMr_czzXqGhr919Wp-13" target="tEUjMr_czzXqGhr919Wp-26">
          <mxGeometry width="50" height="50" relative="1" as="geometry">
            <mxPoint x="125" y="225" as="sourcePoint" />
            <mxPoint x="185" y="130" as="targetPoint" />
          </mxGeometry>
        </mxCell>
        <mxCell id="HeGCxnUVg1iNXxCKtnh3-75" value="&lt;u&gt;id&lt;/u&gt;" style="ellipse;whiteSpace=wrap;html=1;" vertex="1" parent="1">
          <mxGeometry x="515" y="980" width="60" height="40" as="geometry" />
        </mxCell>
        <mxCell id="HeGCxnUVg1iNXxCKtnh3-80" value="role" style="ellipse;whiteSpace=wrap;html=1;" vertex="1" parent="1">
          <mxGeometry x="770" y="990" width="60" height="40" as="geometry" />
        </mxCell>
        <mxCell id="HeGCxnUVg1iNXxCKtnh3-81" value="" style="endArrow=none;html=1;rounded=0;entryX=0;entryY=0.5;entryDx=0;entryDy=0;exitX=0.667;exitY=0;exitDx=0;exitDy=0;exitPerimeter=0;" edge="1" parent="1" source="HeGCxnUVg1iNXxCKtnh3-75" target="HeGCxnUVg1iNXxCKtnh3-74">
          <mxGeometry width="50" height="50" relative="1" as="geometry">
            <mxPoint x="535" y="940" as="sourcePoint" />
            <mxPoint x="589" y="920" as="targetPoint" />
          </mxGeometry>
        </mxCell>
        <mxCell id="tEUjMr_czzXqGhr919Wp-29" value="1" style="text;html=1;align=center;verticalAlign=middle;whiteSpace=wrap;rounded=0;" vertex="1" parent="1">
          <mxGeometry x="-35" y="70" width="60" height="30" as="geometry" />
        </mxCell>
        <mxCell id="HeGCxnUVg1iNXxCKtnh3-82" value="" style="endArrow=none;html=1;rounded=0;entryX=0.4;entryY=1;entryDx=0;entryDy=0;entryPerimeter=0;exitX=0.5;exitY=0;exitDx=0;exitDy=0;" edge="1" parent="1" source="HeGCxnUVg1iNXxCKtnh3-76" target="HeGCxnUVg1iNXxCKtnh3-74">
          <mxGeometry width="50" height="50" relative="1" as="geometry">
            <mxPoint x="635" y="990" as="sourcePoint" />
            <mxPoint x="669" y="980" as="targetPoint" />
          </mxGeometry>
        </mxCell>
        <mxCell id="tEUjMr_czzXqGhr919Wp-30" value="1" style="text;html=1;align=center;verticalAlign=middle;whiteSpace=wrap;rounded=0;" vertex="1" parent="1">
          <mxGeometry x="95" y="80" width="60" height="30" as="geometry" />
        </mxCell>
        <mxCell id="HeGCxnUVg1iNXxCKtnh3-83" value="" style="endArrow=none;html=1;rounded=0;entryX=0.83;entryY=1.017;entryDx=0;entryDy=0;exitX=0.5;exitY=0;exitDx=0;exitDy=0;entryPerimeter=0;" edge="1" parent="1" source="HeGCxnUVg1iNXxCKtnh3-77" target="HeGCxnUVg1iNXxCKtnh3-74">
          <mxGeometry width="50" height="50" relative="1" as="geometry">
            <mxPoint x="695" y="1000" as="sourcePoint" />
            <mxPoint x="749" y="980" as="targetPoint" />
          </mxGeometry>
        </mxCell>
        <mxCell id="HeGCxnUVg1iNXxCKtnh3-84" value="" style="endArrow=none;html=1;rounded=0;entryX=1;entryY=0.5;entryDx=0;entryDy=0;exitX=0.35;exitY=-0.075;exitDx=0;exitDy=0;exitPerimeter=0;" edge="1" parent="1" source="HeGCxnUVg1iNXxCKtnh3-80" target="HeGCxnUVg1iNXxCKtnh3-74">
          <mxGeometry width="50" height="50" relative="1" as="geometry">
            <mxPoint x="812" y="979" as="sourcePoint" />
            <mxPoint x="795" y="950" as="targetPoint" />
          </mxGeometry>
        </mxCell>
        <mxCell id="HeGCxnUVg1iNXxCKtnh3-85" value="group_messages" style="rounded=1;whiteSpace=wrap;html=1;" vertex="1" parent="1">
          <mxGeometry x="325" y="660" width="100" height="60" as="geometry" />
        </mxCell>
        <mxCell id="HeGCxnUVg1iNXxCKtnh3-86" value="&lt;u&gt;id&lt;/u&gt;" style="ellipse;whiteSpace=wrap;html=1;" vertex="1" parent="1">
          <mxGeometry x="225" y="700" width="60" height="40" as="geometry" />
        </mxCell>
        <mxCell id="HeGCxnUVg1iNXxCKtnh3-88" value="group-id" style="ellipse;whiteSpace=wrap;html=1;" vertex="1" parent="1">
          <mxGeometry x="285" y="755" width="60" height="40" as="geometry" />
        </mxCell>
        <mxCell id="HeGCxnUVg1iNXxCKtnh3-89" value="user-id" style="ellipse;whiteSpace=wrap;html=1;" vertex="1" parent="1">
          <mxGeometry x="365" y="755" width="60" height="40" as="geometry" />
        </mxCell>
        <mxCell id="HeGCxnUVg1iNXxCKtnh3-91" value="&lt;table&gt;&lt;tbody&gt;&lt;tr&gt;&lt;td data-col-size=&quot;sm&quot; data-end=&quot;1096&quot; data-start=&quot;1086&quot;&gt;message&lt;/td&gt;&lt;/tr&gt;&lt;/tbody&gt;&lt;/table&gt;&lt;table&gt;&lt;tbody&gt;&lt;tr&gt;&lt;td data-col-size=&quot;sm&quot; data-end=&quot;1103&quot; data-start=&quot;1096&quot;&gt;&lt;/td&gt;&lt;/tr&gt;&lt;/tbody&gt;&lt;/table&gt;" style="ellipse;whiteSpace=wrap;html=1;" vertex="1" parent="1">
          <mxGeometry x="445" y="765" width="60" height="40" as="geometry" />
        </mxCell>
        <mxCell id="HeGCxnUVg1iNXxCKtnh3-92" value="" style="endArrow=none;html=1;rounded=0;entryX=-0.013;entryY=0.386;entryDx=0;entryDy=0;exitX=0.5;exitY=0;exitDx=0;exitDy=0;entryPerimeter=0;" edge="1" parent="1" source="HeGCxnUVg1iNXxCKtnh3-86" target="HeGCxnUVg1iNXxCKtnh3-85">
          <mxGeometry width="50" height="50" relative="1" as="geometry">
            <mxPoint x="285" y="720" as="sourcePoint" />
            <mxPoint x="345" y="675" as="targetPoint" />
          </mxGeometry>
        </mxCell>
        <mxCell id="HeGCxnUVg1iNXxCKtnh3-93" value="" style="endArrow=none;html=1;rounded=0;entryX=0.42;entryY=0.983;entryDx=0;entryDy=0;exitX=0.5;exitY=0;exitDx=0;exitDy=0;entryPerimeter=0;" edge="1" parent="1" source="HeGCxnUVg1iNXxCKtnh3-88" target="HeGCxnUVg1iNXxCKtnh3-85">
          <mxGeometry width="50" height="50" relative="1" as="geometry">
            <mxPoint x="315" y="762" as="sourcePoint" />
            <mxPoint x="384" y="745" as="targetPoint" />
          </mxGeometry>
        </mxCell>
        <mxCell id="HeGCxnUVg1iNXxCKtnh3-94" value="" style="endArrow=none;html=1;rounded=0;entryX=0.75;entryY=1;entryDx=0;entryDy=0;exitX=0.5;exitY=0;exitDx=0;exitDy=0;" edge="1" parent="1" source="HeGCxnUVg1iNXxCKtnh3-89" target="HeGCxnUVg1iNXxCKtnh3-85">
          <mxGeometry width="50" height="50" relative="1" as="geometry">
            <mxPoint x="385" y="772" as="sourcePoint" />
            <mxPoint x="454" y="755" as="targetPoint" />
          </mxGeometry>
        </mxCell>
        <mxCell id="HeGCxnUVg1iNXxCKtnh3-95" value="" style="endArrow=none;html=1;rounded=0;entryX=1;entryY=1;entryDx=0;entryDy=0;exitX=0.5;exitY=0;exitDx=0;exitDy=0;" edge="1" parent="1" source="HeGCxnUVg1iNXxCKtnh3-91" target="HeGCxnUVg1iNXxCKtnh3-85">
          <mxGeometry width="50" height="50" relative="1" as="geometry">
            <mxPoint x="455" y="722" as="sourcePoint" />
            <mxPoint x="524" y="705" as="targetPoint" />
          </mxGeometry>
        </mxCell>
        <mxCell id="tEUjMr_czzXqGhr919Wp-36" value="1" style="text;html=1;align=center;verticalAlign=middle;whiteSpace=wrap;rounded=0;" vertex="1" parent="1">
          <mxGeometry x="565" y="870" width="60" height="30" as="geometry" />
        </mxCell>
        <mxCell id="tEUjMr_czzXqGhr919Wp-37" value="Send" style="rhombus;whiteSpace=wrap;html=1;" vertex="1" parent="1">
          <mxGeometry x="525" y="770" width="80" height="80" as="geometry" />
        </mxCell>
        <mxCell id="HeGCxnUVg1iNXxCKtnh3-121" value="have" style="rhombus;whiteSpace=wrap;html=1;" vertex="1" parent="1">
          <mxGeometry x="700" y="785" width="80" height="80" as="geometry" />
        </mxCell>
        <mxCell id="tEUjMr_czzXqGhr919Wp-38" value="" style="endArrow=none;html=1;rounded=0;entryX=0.5;entryY=1;entryDx=0;entryDy=0;exitX=0.25;exitY=0;exitDx=0;exitDy=0;" edge="1" parent="1" source="HeGCxnUVg1iNXxCKtnh3-74" target="tEUjMr_czzXqGhr919Wp-37">
          <mxGeometry width="50" height="50" relative="1" as="geometry">
            <mxPoint x="675" y="930" as="sourcePoint" />
            <mxPoint x="725" y="880" as="targetPoint" />
          </mxGeometry>
        </mxCell>
        <mxCell id="HeGCxnUVg1iNXxCKtnh3-125" value="join" style="rhombus;whiteSpace=wrap;html=1;" vertex="1" parent="1">
          <mxGeometry x="295" y="890" width="80" height="80" as="geometry" />
        </mxCell>
        <mxCell id="HeGCxnUVg1iNXxCKtnh3-127" style="edgeStyle=orthogonalEdgeStyle;rounded=0;orthogonalLoop=1;jettySize=auto;html=1;exitX=1;exitY=0.5;exitDx=0;exitDy=0;entryX=-0.022;entryY=0.372;entryDx=0;entryDy=0;entryPerimeter=0;" edge="1" parent="1" source="HeGCxnUVg1iNXxCKtnh3-125" target="HeGCxnUVg1iNXxCKtnh3-74">
          <mxGeometry relative="1" as="geometry" />
        </mxCell>
        <mxCell id="tEUjMr_czzXqGhr919Wp-40" value="" style="endArrow=none;html=1;rounded=0;entryX=0.25;entryY=1;entryDx=0;entryDy=0;exitX=1;exitY=0.5;exitDx=0;exitDy=0;" edge="1" parent="1" source="HeGCxnUVg1iNXxCKtnh3-121" target="HeGCxnUVg1iNXxCKtnh3-65">
          <mxGeometry width="50" height="50" relative="1" as="geometry">
            <mxPoint x="350" y="980" as="sourcePoint" />
            <mxPoint x="400" y="930" as="targetPoint" />
          </mxGeometry>
        </mxCell>
        <mxCell id="HeGCxnUVg1iNXxCKtnh3-128" value="M" style="text;html=1;align=center;verticalAlign=middle;whiteSpace=wrap;rounded=0;" vertex="1" parent="1">
          <mxGeometry x="117.5" y="760" width="60" height="30" as="geometry" />
        </mxCell>
        <mxCell id="tEUjMr_czzXqGhr919Wp-41" value="" style="endArrow=none;html=1;rounded=0;entryX=0;entryY=1;entryDx=0;entryDy=0;exitX=1;exitY=0;exitDx=0;exitDy=0;" edge="1" parent="1" target="HeGCxnUVg1iNXxCKtnh3-121">
          <mxGeometry width="50" height="50" relative="1" as="geometry">
            <mxPoint x="690" y="905" as="sourcePoint" />
            <mxPoint x="870" y="830" as="targetPoint" />
          </mxGeometry>
        </mxCell>
        <mxCell id="tEUjMr_czzXqGhr919Wp-42" value="1" style="text;html=1;align=center;verticalAlign=middle;whiteSpace=wrap;rounded=0;" vertex="1" parent="1">
          <mxGeometry x="725" y="750" width="60" height="30" as="geometry" />
        </mxCell>
        <mxCell id="tEUjMr_czzXqGhr919Wp-43" value="M" style="text;html=1;align=center;verticalAlign=middle;whiteSpace=wrap;rounded=0;" vertex="1" parent="1">
          <mxGeometry x="665" y="860" width="60" height="30" as="geometry" />
        </mxCell>
        <mxCell id="tEUjMr_czzXqGhr919Wp-44" value="" style="endArrow=none;html=1;rounded=0;entryX=0.5;entryY=0;entryDx=0;entryDy=0;exitX=1;exitY=0.5;exitDx=0;exitDy=0;" edge="1" parent="1" source="HeGCxnUVg1iNXxCKtnh3-85" target="tEUjMr_czzXqGhr919Wp-37">
          <mxGeometry width="50" height="50" relative="1" as="geometry">
            <mxPoint x="475" y="960" as="sourcePoint" />
            <mxPoint x="525" y="910" as="targetPoint" />
          </mxGeometry>
        </mxCell>
        <mxCell id="tEUjMr_czzXqGhr919Wp-46" value="have" style="rhombus;whiteSpace=wrap;html=1;" vertex="1" parent="1">
          <mxGeometry x="515" y="610" width="80" height="80" as="geometry" />
        </mxCell>
        <mxCell id="tEUjMr_czzXqGhr919Wp-45" value="M" style="text;html=1;align=center;verticalAlign=middle;whiteSpace=wrap;rounded=0;" vertex="1" parent="1">
          <mxGeometry x="440" y="675" width="60" height="30" as="geometry" />
        </mxCell>
        <mxCell id="HeGCxnUVg1iNXxCKtnh3-130" value="" style="endArrow=none;html=1;rounded=0;entryX=0;entryY=0.5;entryDx=0;entryDy=0;exitX=1;exitY=0;exitDx=0;exitDy=0;" edge="1" parent="1" source="HeGCxnUVg1iNXxCKtnh3-85" target="tEUjMr_czzXqGhr919Wp-46">
          <mxGeometry width="50" height="50" relative="1" as="geometry">
            <mxPoint x="555" y="640" as="sourcePoint" />
            <mxPoint x="715" y="725" as="targetPoint" />
          </mxGeometry>
        </mxCell>
        <mxCell id="tEUjMr_czzXqGhr919Wp-48" value="" style="endArrow=none;html=1;rounded=0;entryX=1;entryY=0.5;entryDx=0;entryDy=0;exitX=0;exitY=0.25;exitDx=0;exitDy=0;" edge="1" parent="1" source="HeGCxnUVg1iNXxCKtnh3-65" target="tEUjMr_czzXqGhr919Wp-46">
          <mxGeometry width="50" height="50" relative="1" as="geometry">
            <mxPoint x="465" y="920" as="sourcePoint" />
            <mxPoint x="515" y="870" as="targetPoint" />
          </mxGeometry>
        </mxCell>
        <mxCell id="tEUjMr_czzXqGhr919Wp-49" value="M" style="text;html=1;align=center;verticalAlign=middle;whiteSpace=wrap;rounded=0;" vertex="1" parent="1">
          <mxGeometry x="425" y="630" width="60" height="30" as="geometry" />
        </mxCell>
        <mxCell id="tEUjMr_czzXqGhr919Wp-50" value="1" style="text;html=1;align=center;verticalAlign=middle;whiteSpace=wrap;rounded=0;" vertex="1" parent="1">
          <mxGeometry x="665" y="670" width="60" height="30" as="geometry" />
        </mxCell>
        <mxCell id="tEUjMr_czzXqGhr919Wp-53" value="" style="endArrow=none;html=1;rounded=0;entryX=0;entryY=0;entryDx=0;entryDy=0;exitX=0.75;exitY=1;exitDx=0;exitDy=0;" edge="1" parent="1" source="_SDdMhTvfAspMDNIdv1c-3" target="_SDdMhTvfAspMDNIdv1c-12">
          <mxGeometry width="50" height="50" relative="1" as="geometry">
            <mxPoint x="202.5" y="880" as="sourcePoint" />
            <mxPoint x="217.5" y="920" as="targetPoint" />
          </mxGeometry>
        </mxCell>
        <mxCell id="tEUjMr_czzXqGhr919Wp-56" value="" style="endArrow=none;html=1;rounded=0;entryX=1;entryY=1;entryDx=0;entryDy=0;exitX=0;exitY=0.5;exitDx=0;exitDy=0;" edge="1" parent="1" source="_SDdMhTvfAspMDNIdv1c-40" target="_SDdMhTvfAspMDNIdv1c-59">
          <mxGeometry width="50" height="50" relative="1" as="geometry">
            <mxPoint x="659" y="146" as="sourcePoint" />
            <mxPoint x="540" y="120" as="targetPoint" />
          </mxGeometry>
        </mxCell>
        <mxCell id="tEUjMr_czzXqGhr919Wp-59" value="" style="endArrow=none;html=1;rounded=0;entryX=0.5;entryY=1;entryDx=0;entryDy=0;exitX=0.25;exitY=0;exitDx=0;exitDy=0;" edge="1" parent="1" source="HeGCxnUVg1iNXxCKtnh3-65" target="HeGCxnUVg1iNXxCKtnh3-69">
          <mxGeometry width="50" height="50" relative="1" as="geometry">
            <mxPoint x="460" y="850" as="sourcePoint" />
            <mxPoint x="510" y="800" as="targetPoint" />
          </mxGeometry>
        </mxCell>
        <mxCell id="tEUjMr_czzXqGhr919Wp-61" value="" style="endArrow=none;html=1;rounded=0;entryX=1;entryY=1;entryDx=0;entryDy=0;exitX=0.25;exitY=0;exitDx=0;exitDy=0;" edge="1" parent="1" source="HeGCxnUVg1iNXxCKtnh3-65" target="HeGCxnUVg1iNXxCKtnh3-67">
          <mxGeometry width="50" height="50" relative="1" as="geometry">
            <mxPoint x="780" y="700" as="sourcePoint" />
            <mxPoint x="800" y="630" as="targetPoint" />
          </mxGeometry>
        </mxCell>
        <mxCell id="tEUjMr_czzXqGhr919Wp-62" value="" style="endArrow=none;html=1;rounded=0;entryX=1;entryY=1;entryDx=0;entryDy=0;exitX=0;exitY=0;exitDx=0;exitDy=0;" edge="1" parent="1" source="HeGCxnUVg1iNXxCKtnh3-65" target="HeGCxnUVg1iNXxCKtnh3-66">
          <mxGeometry width="50" height="50" relative="1" as="geometry">
            <mxPoint x="794" y="686" as="sourcePoint" />
            <mxPoint x="760" y="620" as="targetPoint" />
          </mxGeometry>
        </mxCell>
        <mxCell id="tEUjMr_czzXqGhr919Wp-63" value="description&amp;nbsp;" style="ellipse;whiteSpace=wrap;html=1;" vertex="1" parent="1">
          <mxGeometry x="780" y="565" width="60" height="40" as="geometry" />
        </mxCell>
        <mxCell id="tEUjMr_czzXqGhr919Wp-64" value="" style="endArrow=none;html=1;rounded=0;entryX=0.5;entryY=1;entryDx=0;entryDy=0;exitX=0.5;exitY=0;exitDx=0;exitDy=0;" edge="1" parent="1" source="HeGCxnUVg1iNXxCKtnh3-65" target="tEUjMr_czzXqGhr919Wp-63">
          <mxGeometry width="50" height="50" relative="1" as="geometry">
            <mxPoint x="779" y="681" as="sourcePoint" />
            <mxPoint x="760" y="630" as="targetPoint" />
          </mxGeometry>
        </mxCell>
      </root>
    </mxGraphModel>
  </diagram>
</mxfile>
